<svg width="1169" height="589" fill="none" xmlns="http://www.w3.org/2000/svg"><path d="M299.2 4.7a4.7 4.7 0 1 1-9.4 0 4.7 4.7 0 0 1 9.4 0ZM311.8 4.7a4.7 4.7 0 1 1-9.4 0 4.7 4.7 0 0 1 9.4 0ZM324.4 4.7a4.7 4.7 0 1 1-9.4 0 4.7 4.7 0 0 1 9.4 0ZM337 4.7a4.7 4.7 0 1 1-9.4 0 4.7 4.7 0 0 1 9.4 0ZM349.7 4.7a4.7 4.7 0 1 1-9.5 0 4.7 4.7 0 0 1 9.5 0ZM362.2 4.7a4.7 4.7 0 1 1-9.5 0 4.7 4.7 0 0 1 9.5 0ZM374.8 4.7a4.7 4.7 0 1 1-9.5 0 4.7 4.7 0 0 1 9.5 0ZM387.4 4.7a4.7 4.7 0 1 1-9.4 0 4.7 4.7 0 0 1 9.4 0ZM400 4.7a4.7 4.7 0 1 1-9.4 0 4.7 4.7 0 0 1 9.4 0ZM412.6 4.7a4.7 4.7 0 1 1-9.5 0 4.7 4.7 0 0 1 9.5 0ZM425.2 4.7a4.7 4.7 0 1 1-9.4 0 4.7 4.7 0 0 1 9.4 0ZM437.8 4.7a4.7 4.7 0 1 1-9.5 0 4.7 4.7 0 0 1 9.5 0ZM450.4 4.7a4.7 4.7 0 1 1-9.4 0 4.7 4.7 0 0 1 9.4 0ZM463 4.7a4.7 4.7 0 1 1-9.4 0 4.7 4.7 0 0 1 9.4 0ZM475.6 4.7a4.7 4.7 0 1 1-9.5 0 4.7 4.7 0 0 1 9.5 0ZM488.2 4.7a4.7 4.7 0 1 1-9.4 0 4.7 4.7 0 0 1 9.4 0ZM500.8 4.7a4.7 4.7 0 1 1-9.5 0 4.7 4.7 0 0 1 9.5 0ZM563.8 4.7a4.7 4.7 0 1 1-9.5 0 4.7 4.7 0 0 1 9.5 0ZM576.4 4.7a4.7 4.7 0 1 1-9.4 0 4.7 4.7 0 0 1 9.4 0ZM589 4.7a4.7 4.7 0 1 1-9.4 0 4.7 4.7 0 0 1 9.4 0ZM601.6 4.7a4.7 4.7 0 1 1-9.5 0 4.7 4.7 0 0 1 9.5 0ZM652 4.7a4.7 4.7 0 1 1-9.4 0 4.7 4.7 0 0 1 9.4 0ZM664.6 4.7a4.7 4.7 0 1 1-9.5 0 4.7 4.7 0 0 1 9.5 0ZM677.2 4.7a4.7 4.7 0 1 1-9.5 0 4.7 4.7 0 0 1 9.5 0ZM765.4 4.7a4.7 4.7 0 1 1-9.5 0 4.7 4.7 0 0 1 9.5 0ZM778 4.7a4.7 4.7 0 1 1-9.5 0 4.7 4.7 0 0 1 9.5 0ZM211 17.3a4.7 4.7 0 1 1-9.4 0 4.7 4.7 0 0 1 9.4 0ZM223.7 17.3a4.7 4.7 0 1 1-9.5 0 4.7 4.7 0 0 1 9.5 0ZM236.2 17.3a4.7 4.7 0 1 1-9.4 0 4.7 4.7 0 0 1 9.4 0ZM248.8 17.3a4.7 4.7 0 1 1-9.4 0 4.7 4.7 0 0 1 9.4 0ZM261.4 17.3a4.7 4.7 0 1 1-9.4 0 4.7 4.7 0 0 1 9.4 0ZM274 17.3a4.7 4.7 0 1 1-9.4 0 4.7 4.7 0 0 1 9.4 0ZM286.6 17.3a4.7 4.7 0 1 1-9.4 0 4.7 4.7 0 0 1 9.4 0ZM299.2 17.3a4.7 4.7 0 0 1-9.3 1 4.7 4.7 0 1 1 9.3-1ZM311.8 17.3a4.7 4.7 0 1 1-9.4 0 4.7 4.7 0 0 1 9.4 0ZM362.2 17.3a4.7 4.7 0 1 1-9.5 0 4.7 4.7 0 0 1 9.5 0ZM374.8 17.3a4.7 4.7 0 1 1-9.5 0 4.7 4.7 0 0 1 9.5 0ZM387.4 17.3a4.7 4.7 0 1 1-9.4 0 4.7 4.7 0 0 1 9.4 0ZM400 17.3a4.7 4.7 0 0 1-9.3 1 4.7 4.7 0 1 1 9.3-1ZM412.6 17.3a4.7 4.7 0 1 1-9.5 0 4.7 4.7 0 0 1 9.5 0ZM425.2 17.3a4.7 4.7 0 1 1-9.4 0 4.7 4.7 0 0 1 9.4 0ZM437.8 17.3a4.7 4.7 0 1 1-9.5 0 4.7 4.7 0 0 1 9.5 0ZM450.4 17.3a4.7 4.7 0 1 1-9.4 0 4.7 4.7 0 0 1 9.4 0ZM463 17.3a4.7 4.7 0 1 1-9.4 0 4.7 4.7 0 0 1 9.4 0ZM475.6 17.3a4.7 4.7 0 1 1-9.5 0 4.7 4.7 0 0 1 9.5 0ZM576.4 17.3a4.7 4.7 0 1 1-9.4 0 4.7 4.7 0 0 1 9.4 0ZM589 17.3a4.7 4.7 0 1 1-9.4 0 4.7 4.7 0 0 1 9.4 0ZM689.8 17.3a4.7 4.7 0 1 1-9.5 0 4.7 4.7 0 0 1 9.5 0ZM702.4 17.3a4.7 4.7 0 1 1-9.5 0 4.7 4.7 0 0 1 9.5 0ZM778 17.3a4.7 4.7 0 1 1-9.5 0 4.7 4.7 0 0 1 9.5 0ZM790.6 17.3a4.7 4.7 0 1 1-9.5 0 4.7 4.7 0 0 1 9.5 0ZM803.2 17.3a4.7 4.7 0 1 1-9.5 0 4.7 4.7 0 0 1 9.5 0ZM815.8 17.3a4.7 4.7 0 1 1-9.5 0 4.7 4.7 0 0 1 9.5 0ZM828.4 17.3a4.7 4.7 0 0 1-9.4 1 4.7 4.7 0 1 1 9.4-1ZM891.5 17.3a4.7 4.7 0 1 1-9.5 0 4.7 4.7 0 0 1 9.5 0ZM181.1 34.6a4.7 4.7 0 1 0 0-9.4 4.7 4.7 0 0 0 0 9.4ZM198.5 30a4.7 4.7 0 1 1-9.5 0 4.7 4.7 0 0 1 9.5 0ZM206.3 34.6a4.7 4.7 0 1 0 0-9.4 4.7 4.7 0 0 0 0 9.4ZM223.7 30a4.7 4.7 0 1 1-9.5 0 4.7 4.7 0 0 1 9.5 0ZM236.2 30a4.7 4.7 0 1 1-9.4 0 4.7 4.7 0 0 1 9.4 0ZM244.1 34.6a4.7 4.7 0 1 0 0-9.4 4.7 4.7 0 0 0 0 9.4ZM261.4 30a4.7 4.7 0 1 1-9.4 0 4.7 4.7 0 0 1 9.4 0ZM269.3 34.6a4.7 4.7 0 1 0 0-9.4 4.7 4.7 0 0 0 0 9.4ZM286.6 30a4.7 4.7 0 1 1-9.4 0 4.7 4.7 0 0 1 9.4 0ZM299.2 30a4.7 4.7 0 1 1-9.4 0 4.7 4.7 0 0 1 9.4 0ZM307.1 34.6a4.7 4.7 0 1 0 0-9.4 4.7 4.7 0 0 0 0 9.4ZM387.4 30a4.7 4.7 0 1 1-9.4 0 4.7 4.7 0 0 1 9.4 0ZM395.3 34.6a4.7 4.7 0 1 0 0-9.4 4.7 4.7 0 0 0 0 9.4ZM412.6 30a4.7 4.7 0 1 1-9.5 0 4.7 4.7 0 0 1 9.5 0ZM425.2 30a4.7 4.7 0 1 1-9.4 0 4.7 4.7 0 0 1 9.4 0ZM437.8 30a4.7 4.7 0 1 1-9.5 0 4.7 4.7 0 0 1 9.5 0ZM450.4 30a4.7 4.7 0 1 1-9.4 0 4.7 4.7 0 0 1 9.4 0ZM458.3 34.6a4.7 4.7 0 1 0 0-9.4 4.7 4.7 0 0 0 0 9.4ZM672.5 34.6a4.7 4.7 0 1 0 0-9.4 4.7 4.7 0 0 0 0 9.4ZM689.8 30a4.7 4.7 0 1 1-9.5 0 4.7 4.7 0 0 1 9.5 0ZM727.6 30a4.7 4.7 0 1 1-9.5 0 4.7 4.7 0 0 1 9.5 0ZM752.8 30a4.7 4.7 0 1 1-9.5 0 4.7 4.7 0 0 1 9.5 0ZM765.4 30a4.7 4.7 0 1 1-9.5 0 4.7 4.7 0 0 1 9.5 0ZM778 30a4.7 4.7 0 1 1-9.5 0 4.7 4.7 0 0 1 9.5 0ZM790.6 30a4.7 4.7 0 1 1-9.5 0 4.7 4.7 0 0 1 9.5 0ZM798.4 34.6a4.7 4.7 0 1 0 0-9.4 4.7 4.7 0 0 0 0 9.4ZM815.8 30a4.7 4.7 0 1 1-9.5 0 4.7 4.7 0 0 1 9.5 0ZM823.6 34.6a4.7 4.7 0 1 0 0-9.4 4.7 4.7 0 0 0 0 9.4ZM841 30a4.7 4.7 0 1 1-9.5 0 4.7 4.7 0 0 1 9.5 0ZM853.6 30a4.7 4.7 0 1 1-9.5 0 4.7 4.7 0 0 1 9.5 0ZM861.4 34.6a4.7 4.7 0 1 0 0-9.4 4.7 4.7 0 0 0 0 9.4ZM878.8 30a4.7 4.7 0 1 1-9.5 0 4.7 4.7 0 0 1 9.5 0ZM904 30a4.7 4.7 0 1 1-9.5 0 4.7 4.7 0 0 1 9.5 0ZM916.4 30a4.7 4.7 0 1 1-9.4 0 4.7 4.7 0 0 1 9.4 0ZM924.4 34.6a4.7 4.7 0 1 0 0-9.4 4.7 4.7 0 0 0 0 9.4ZM941.8 30a4.7 4.7 0 1 1-9.5 0 4.7 4.7 0 0 1 9.5 0ZM59.9 42.5a4.7 4.7 0 1 1-9.5 0 4.7 4.7 0 0 1 9.5 0ZM72.6 42.5a4.7 4.7 0 1 1-9.5 0 4.7 4.7 0 0 1 9.5 0ZM85 42.5a4.7 4.7 0 1 1-9.4 0 4.7 4.7 0 0 1 9.4 0ZM97.7 42.5a4.7 4.7 0 1 1-9.5 0 4.7 4.7 0 0 1 9.5 0ZM110.3 42.5a4.7 4.7 0 1 1-9.5 0 4.7 4.7 0 0 1 9.5 0ZM122.9 42.5a4.7 4.7 0 1 1-9.5 0 4.7 4.7 0 0 1 9.5 0ZM135.5 42.5a4.7 4.7 0 1 1-9.5 0 4.7 4.7 0 0 1 9.5 0ZM148 42.5a4.7 4.7 0 1 1-9.4 0 4.7 4.7 0 0 1 9.5 0ZM160.7 42.5a4.7 4.7 0 1 1-9.5 0 4.7 4.7 0 0 1 9.5 0ZM173.2 42.5a4.7 4.7 0 1 1-9.4 0 4.7 4.7 0 0 1 9.4 0ZM185.9 42.5a4.7 4.7 0 1 1-9.5 0 4.7 4.7 0 0 1 9.5 0ZM198.5 42.5a4.7 4.7 0 1 1-9.5 0 4.7 4.7 0 0 1 9.5 0ZM211 42.5a4.7 4.7 0 1 1-9.4 0 4.7 4.7 0 0 1 9.4 0ZM223.7 42.5a4.7 4.7 0 1 1-9.5 0 4.7 4.7 0 0 1 9.5 0ZM236.2 42.5a4.7 4.7 0 1 1-9.4 0 4.7 4.7 0 0 1 9.4 0ZM248.8 42.5a4.7 4.7 0 1 1-9.4 0 4.7 4.7 0 0 1 9.4 0ZM261.4 42.5a4.7 4.7 0 1 1-9.4 0 4.7 4.7 0 0 1 9.4 0ZM274 42.5a4.7 4.7 0 1 1-9.4 0 4.7 4.7 0 0 1 9.4 0ZM286.6 42.5a4.7 4.7 0 1 1-9.4 0 4.7 4.7 0 0 1 9.4 0ZM299.2 42.5a4.7 4.7 0 0 1-9.3 1 4.7 4.7 0 1 1 9.3-1ZM311.8 42.5a4.7 4.7 0 1 1-9.5 0 4.7 4.7 0 0 1 9.5 0ZM324.4 42.5a4.7 4.7 0 1 1-9.4 0 4.7 4.7 0 0 1 9.4 0ZM387.4 42.5a4.7 4.7 0 1 1-9.4 0 4.7 4.7 0 0 1 9.4 0ZM400 42.5a4.7 4.7 0 0 1-9.3 1 4.7 4.7 0 1 1 9.3-1ZM412.6 42.5a4.7 4.7 0 1 1-9.5 0 4.7 4.7 0 0 1 9.5 0ZM425.2 42.5a4.7 4.7 0 1 1-9.4 0 4.7 4.7 0 0 1 9.4 0ZM437.8 42.5a4.7 4.7 0 1 1-9.5 0 4.7 4.7 0 0 1 9.5 0ZM450.4 42.5a4.7 4.7 0 1 1-9.4 0 4.7 4.7 0 0 1 9.4 0ZM463 42.5a4.7 4.7 0 1 1-9.4 0 4.7 4.7 0 0 1 9.4 0ZM576.4 42.5a4.7 4.7 0 1 1-9.4 0 4.7 4.7 0 0 1 9.4 0ZM589 42.5a4.7 4.7 0 1 1-9.4 0 4.7 4.7 0 0 1 9.4 0ZM601.6 42.5a4.7 4.7 0 1 1-9.5 0 4.7 4.7 0 0 1 9.5 0ZM614.2 42.5a4.7 4.7 0 0 1-9.4 1 4.7 4.7 0 1 1 9.4-1ZM626.8 42.5a4.7 4.7 0 1 1-9.5 0 4.7 4.7 0 0 1 9.5 0ZM702.4 42.5a4.7 4.7 0 1 1-9.5 0 4.7 4.7 0 0 1 9.5 0ZM715 42.5a4.7 4.7 0 1 1-9.5 0 4.7 4.7 0 0 1 9.5 0ZM727.6 42.5a4.7 4.7 0 1 1-9.5 0 4.7 4.7 0 0 1 9.5 0ZM740.2 42.5a4.7 4.7 0 1 1-9.5 0 4.7 4.7 0 0 1 9.5 0ZM752.8 42.5a4.7 4.7 0 1 1-9.5 0 4.7 4.7 0 0 1 9.5 0ZM765.4 42.5a4.7 4.7 0 1 1-9.5 0 4.7 4.7 0 0 1 9.5 0ZM778 42.5a4.7 4.7 0 1 1-9.5 0 4.7 4.7 0 0 1 9.5 0ZM790.6 42.5a4.7 4.7 0 1 1-9.5 0 4.7 4.7 0 0 1 9.5 0ZM803.2 42.5a4.7 4.7 0 1 1-9.5 0 4.7 4.7 0 0 1 9.5 0ZM815.8 42.5a4.7 4.7 0 1 1-9.5 0 4.7 4.7 0 0 1 9.5 0ZM828.4 42.5a4.7 4.7 0 0 1-9.4 1 4.7 4.7 0 1 1 9.4-1ZM841 42.5a4.7 4.7 0 1 1-9.5 0 4.7 4.7 0 0 1 9.5 0ZM853.6 42.5a4.7 4.7 0 1 1-9.5 0 4.7 4.7 0 0 1 9.5 0ZM866.2 42.5a4.7 4.7 0 1 1-9.5 0 4.7 4.7 0 0 1 9.5 0ZM878.8 42.5a4.7 4.7 0 1 1-9.5 0 4.7 4.7 0 0 1 9.5 0ZM891.5 42.5a4.7 4.7 0 1 1-9.5 0 4.7 4.7 0 0 1 9.5 0ZM904 42.5a4.7 4.7 0 1 1-9.5 0 4.7 4.7 0 0 1 9.5 0ZM916.4 42.5a4.7 4.7 0 1 1-9.4 0 4.7 4.7 0 0 1 9.4 0ZM929.1 42.5a4.7 4.7 0 1 1-9.4 0 4.7 4.7 0 0 1 9.4 0ZM941.8 42.5a4.7 4.7 0 1 1-9.5 0 4.7 4.7 0 0 1 9.5 0ZM954.3 42.5a4.7 4.7 0 1 1-9.4 0 4.7 4.7 0 0 1 9.4 0ZM967 42.5a4.7 4.7 0 1 1-9.5 0 4.7 4.7 0 0 1 9.4 0ZM979.5 42.5a4.7 4.7 0 1 1-9.4 0 4.7 4.7 0 0 1 9.4 0ZM992.1 42.5a4.7 4.7 0 1 1-9.4 0 4.7 4.7 0 0 1 9.4 0ZM1004.8 42.5a4.8 4.8 0 1 1-9.6 0 4.8 4.8 0 0 1 9.5 0ZM1017.3 42.5a4.7 4.7 0 1 1 0 0ZM1030 42.5a4.8 4.8 0 0 1-5.7 4.7 4.8 4.8 0 0 1-3.8-3.8 4.8 4.8 0 0 1 4.7-5.6 4.7 4.7 0 0 1 4.7 4.7ZM1042.5 42.5a4.7 4.7 0 0 1-5.6 4.6 4.7 4.7 0 0 1-3.7-3.7 4.7 4.7 0 0 1 2-4.8 4.7 4.7 0 0 1 6 .6 4.6 4.6 0 0 1 1.3 3.3ZM1055.1 42.5a4.7 4.7 0 1 1 0 0ZM30 59.8a4.7 4.7 0 1 0 0-9.4 4.7 4.7 0 0 0 0 9.4ZM47.3 55.1a4.7 4.7 0 1 1-9.5 0 4.7 4.7 0 0 1 9.5 0ZM55.2 59.8a4.7 4.7 0 1 0 0-9.4 4.7 4.7 0 0 0 0 9.4ZM72.6 55.1a4.7 4.7 0 1 1-9.5 0 4.7 4.7 0 0 1 9.5 0ZM85 55.1a4.7 4.7 0 1 1-9.4 0 4.7 4.7 0 0 1 9.4 0ZM97.7 55.1a4.7 4.7 0 1 1-9.5 0 4.7 4.7 0 0 1 9.5 0ZM110.3 55.1a4.7 4.7 0 1 1-9.5 0 4.7 4.7 0 0 1 9.5 0ZM118.1 59.8a4.7 4.7 0 1 0 0-9.4 4.7 4.7 0 0 0 0 9.4ZM135.5 55.1a4.7 4.7 0 1 1-9.5 0 4.7 4.7 0 0 1 9.5 0ZM143.3 59.8a4.7 4.7 0 1 0 0-9.4 4.7 4.7 0 0 0 0 9.4ZM160.7 55.1a4.7 4.7 0 1 1-9.5 0 4.7 4.7 0 0 1 9.5 0ZM173.2 55.1a4.7 4.7 0 1 1-9.4 0 4.7 4.7 0 0 1 9.4 0ZM181.1 59.8a4.7 4.7 0 1 0 0-9.4 4.7 4.7 0 0 0 0 9.4ZM198.5 55.1a4.7 4.7 0 1 1-9.5 0 4.7 4.7 0 0 1 9.5 0ZM206.3 59.8a4.7 4.7 0 1 0 0-9.4 4.7 4.7 0 0 0 0 9.4ZM223.7 55.1a4.7 4.7 0 1 1-9.5 0 4.7 4.7 0 0 1 9.5 0ZM236.2 55.1a4.7 4.7 0 1 1-9.4 0 4.7 4.7 0 0 1 9.4 0ZM244.1 59.8a4.7 4.7 0 1 0 0-9.4 4.7 4.7 0 0 0 0 9.4ZM261.4 55.1a4.7 4.7 0 1 1-9.4 0 4.7 4.7 0 0 1 9.4 0ZM307.1 59.8a4.7 4.7 0 1 0 0-9.4 4.7 4.7 0 0 0 0 9.4ZM324.4 55.1a4.7 4.7 0 1 1-9.4 0 4.7 4.7 0 0 1 9.4 0ZM332.3 59.8a4.7 4.7 0 1 0 0-9.4 4.7 4.7 0 0 0 0 9.4ZM374.8 55.1a4.7 4.7 0 1 1-9.5 0 4.7 4.7 0 0 1 9.5 0ZM387.4 55.1a4.7 4.7 0 1 1-9.4 0 4.7 4.7 0 0 1 9.4 0ZM395.3 59.8a4.7 4.7 0 1 0 0-9.4 4.7 4.7 0 0 0 0 9.4ZM412.6 55.1a4.7 4.7 0 1 1-9.5 0 4.7 4.7 0 0 1 9.5 0ZM425.2 55.1a4.7 4.7 0 1 1-9.4 0 4.7 4.7 0 0 1 9.4 0ZM458.3 59.8a4.7 4.7 0 1 0 0-9.4 4.7 4.7 0 0 0 0 9.4ZM475.6 55.1a4.7 4.7 0 1 1-9.5 0 4.7 4.7 0 0 1 9.5 0ZM483.5 59.8a4.7 4.7 0 1 0 0-9.4 4.7 4.7 0 0 0 0 9.4ZM563.8 55.1a4.7 4.7 0 1 1-9.5 0 4.7 4.7 0 0 1 9.5 0ZM576.4 55.1a4.7 4.7 0 1 1-9.4 0 4.7 4.7 0 0 1 9.4 0ZM584.3 59.8a4.7 4.7 0 1 0 0-9.4 4.7 4.7 0 0 0 0 9.4ZM601.6 55.1a4.7 4.7 0 1 1-9.5 0 4.7 4.7 0 0 1 9.5 0ZM609.5 59.8a4.7 4.7 0 1 0 0-9.4 4.7 4.7 0 0 0 0 9.4ZM626.8 55.1a4.7 4.7 0 1 1-9.5 0 4.7 4.7 0 0 1 9.5 0ZM639.3 55.1a4.7 4.7 0 1 1-9.4 0 4.7 4.7 0 0 1 9.4 0ZM647.3 59.8a4.7 4.7 0 1 0 0-9.4 4.7 4.7 0 0 0 0 9.4ZM664.6 55.1a4.7 4.7 0 1 1-9.5 0 4.7 4.7 0 0 1 9.5 0ZM672.5 59.8a4.7 4.7 0 1 0 0-9.4 4.7 4.7 0 0 0 0 9.4ZM689.8 55.1a4.7 4.7 0 1 1-9.5 0 4.7 4.7 0 0 1 9.5 0ZM702.4 55.1a4.7 4.7 0 1 1-9.5 0 4.7 4.7 0 0 1 9.5 0ZM715 55.1a4.7 4.7 0 1 1-9.5 0 4.7 4.7 0 0 1 9.5 0ZM727.6 55.1a4.7 4.7 0 1 1-9.5 0 4.7 4.7 0 0 1 9.5 0ZM735.5 59.8a4.7 4.7 0 1 0 0-9.4 4.7 4.7 0 0 0 0 9.4ZM752.8 55.1a4.7 4.7 0 1 1-9.5 0 4.7 4.7 0 0 1 9.5 0ZM765.4 55.1a4.7 4.7 0 1 1-9.5 0 4.7 4.7 0 0 1 9.5 0ZM778 55.1a4.7 4.7 0 1 1-9.5 0 4.7 4.7 0 0 1 9.5 0ZM790.6 55.1a4.7 4.7 0 1 1-9.5 0 4.7 4.7 0 0 1 9.5 0ZM798.4 59.8a4.7 4.7 0 1 0 0-9.4 4.7 4.7 0 0 0 0 9.4ZM815.8 55.1a4.7 4.7 0 1 1-9.5 0 4.7 4.7 0 0 1 9.5 0ZM823.6 59.8a4.7 4.7 0 1 0 0-9.4 4.7 4.7 0 0 0 0 9.4ZM841 55.1a4.7 4.7 0 1 1-9.5 0 4.7 4.7 0 0 1 9.5 0ZM853.6 55.1a4.7 4.7 0 1 1-9.5 0 4.7 4.7 0 0 1 9.5 0ZM861.4 59.8a4.7 4.7 0 1 0 0-9.4 4.7 4.7 0 0 0 0 9.4ZM878.8 55.1a4.7 4.7 0 1 1-9.5 0 4.7 4.7 0 0 1 9.5 0ZM886.6 59.8a4.7 4.7 0 1 0 0-9.4 4.7 4.7 0 0 0 0 9.4ZM904 55.1a4.7 4.7 0 1 1-9.5 0 4.7 4.7 0 0 1 9.5 0ZM916.4 55.1a4.7 4.7 0 1 1-9.4 0 4.7 4.7 0 0 1 9.4 0ZM924.4 59.8a4.7 4.7 0 1 0 0-9.4 4.7 4.7 0 0 0 0 9.4ZM941.8 55.1a4.7 4.7 0 1 1-9.5 0 4.7 4.7 0 0 1 9.5 0ZM949.6 59.8a4.7 4.7 0 1 0 0-9.4 4.7 4.7 0 0 0 0 9.4ZM967 55.1a4.7 4.7 0 1 1-9.5 0 4.7 4.7 0 0 1 9.4 0ZM979.5 55.1a4.7 4.7 0 1 1-9.4 0 4.7 4.7 0 0 1 9.4 0ZM987.4 59.8a4.7 4.7 0 1 0 0-9.4 4.7 4.7 0 0 0 0 9.4ZM1004.8 55.1a4.8 4.8 0 0 1-5.7 4.7 4.7 4.7 0 1 1 5.6-4.7ZM1012.6 59.8a4.7 4.7 0 1 0 0-9.4 4.7 4.7 0 0 0 0 9.4ZM1030 55.1a4.8 4.8 0 0 1-3 4.4 4.7 4.7 0 0 1-6.2-6.2 4.7 4.7 0 0 1 4.4-3 4.7 4.7 0 0 1 4.7 4.8ZM1042.5 55.1a4.7 4.7 0 0 1-8 3.3 4.7 4.7 0 0 1 .7-7.2 4.7 4.7 0 0 1 7.3 3.9ZM1050.4 59.8a4.7 4.7 0 1 0 0-9.4 4.7 4.7 0 0 0 0 9.4ZM1067.7 55.1a4.8 4.8 0 0 1-5.6 4.7 4.7 4.7 0 1 1 5.6-4.7ZM1075.6 59.8a4.7 4.7 0 1 0 0-9.4 4.7 4.7 0 0 0 0 9.4ZM9.5 67.7a4.7 4.7 0 1 1-9.5 0 4.7 4.7 0 0 1 9.5 0ZM22 67.7a4.7 4.7 0 1 1-9.4 0 4.7 4.7 0 0 1 9.5 0ZM34.7 67.7a4.7 4.7 0 1 1-9.5 0 4.7 4.7 0 0 1 9.5 0ZM47.3 67.7a4.7 4.7 0 1 1-9.5 0 4.7 4.7 0 0 1 9.5 0ZM59.9 67.7a4.7 4.7 0 1 1-9.5 0 4.7 4.7 0 0 1 9.5 0ZM72.6 67.7a4.7 4.7 0 1 1-9.5 0 4.7 4.7 0 0 1 9.5 0ZM85 67.7a4.7 4.7 0 1 1-9.4 0 4.7 4.7 0 0 1 9.4 0ZM97.7 67.7a4.7 4.7 0 1 1-9.5 0 4.7 4.7 0 0 1 9.5 0ZM110.3 67.7a4.7 4.7 0 1 1-9.5 0 4.7 4.7 0 0 1 9.5 0ZM122.9 67.7a4.7 4.7 0 1 1-9.5 0 4.7 4.7 0 0 1 9.5 0ZM135.5 67.7a4.7 4.7 0 1 1-9.5 0 4.7 4.7 0 0 1 9.5 0ZM148 67.7a4.7 4.7 0 1 1-9.4 0 4.7 4.7 0 0 1 9.5 0ZM160.7 67.7a4.7 4.7 0 1 1-9.5 0 4.7 4.7 0 0 1 9.5 0ZM173.2 67.7a4.7 4.7 0 1 1-9.4 0 4.7 4.7 0 0 1 9.4 0ZM185.9 67.7a4.7 4.7 0 1 1-9.5 0 4.7 4.7 0 0 1 9.5 0ZM198.5 67.7a4.7 4.7 0 1 1-9.5 0 4.7 4.7 0 0 1 9.5 0ZM211 67.7a4.7 4.7 0 1 1-9.4 0 4.7 4.7 0 0 1 9.4 0ZM223.7 67.7a4.7 4.7 0 1 1-9.5 0 4.7 4.7 0 0 1 9.5 0ZM236.2 67.7a4.7 4.7 0 1 1-9.4 0 4.7 4.7 0 0 1 9.4 0ZM248.8 67.7a4.7 4.7 0 1 1-9.4 0 4.7 4.7 0 0 1 9.4 0ZM299.2 67.7a4.7 4.7 0 1 1-9.4 0 4.7 4.7 0 0 1 9.4 0ZM311.8 67.7a4.7 4.7 0 1 1-9.4 0 4.7 4.7 0 0 1 9.4 0ZM324.4 67.7a4.7 4.7 0 1 1-9.4 0 4.7 4.7 0 0 1 9.4 0ZM387.4 67.7a4.7 4.7 0 1 1-9.4 0 4.7 4.7 0 0 1 9.4 0ZM400 67.7a4.7 4.7 0 1 1-9.4 0 4.7 4.7 0 0 1 9.4 0ZM463 67.7a4.7 4.7 0 1 1-9.4 0 4.7 4.7 0 0 1 9.4 0ZM475.6 67.7a4.7 4.7 0 1 1-9.5 0 4.7 4.7 0 0 1 9.5 0ZM551.2 67.7a4.7 4.7 0 1 1-9.4 0 4.7 4.7 0 0 1 9.4 0ZM563.8 67.7a4.7 4.7 0 1 1-9.5 0 4.7 4.7 0 0 1 9.5 0ZM576.4 67.7a4.7 4.7 0 1 1-9.4 0 4.7 4.7 0 0 1 9.4 0ZM601.6 67.7a4.7 4.7 0 1 1-9.5 0 4.7 4.7 0 0 1 9.5 0ZM614.2 67.7a4.7 4.7 0 1 1-9.4 0 4.7 4.7 0 0 1 9.4 0ZM626.8 67.7a4.7 4.7 0 1 1-9.5 0 4.7 4.7 0 0 1 9.5 0ZM639.3 67.7a4.7 4.7 0 1 1-9.4 0 4.7 4.7 0 0 1 9.4 0ZM652 67.7a4.7 4.7 0 1 1-9.4 0 4.7 4.7 0 0 1 9.4 0ZM664.6 67.7a4.7 4.7 0 1 1-9.5 0 4.7 4.7 0 0 1 9.5 0ZM677.2 67.7a4.7 4.7 0 1 1-9.4 0 4.7 4.7 0 0 1 9.4 0ZM689.8 67.7a4.7 4.7 0 1 1-9.5 0 4.7 4.7 0 0 1 9.5 0ZM702.4 67.7a4.7 4.7 0 1 1-9.5 0 4.7 4.7 0 0 1 9.5 0ZM715 67.7a4.7 4.7 0 1 1-9.5 0 4.7 4.7 0 0 1 9.5 0ZM727.6 67.7a4.7 4.7 0 1 1-9.5 0 4.7 4.7 0 0 1 9.5 0ZM740.2 67.7a4.7 4.7 0 1 1-9.5 0 4.7 4.7 0 0 1 9.5 0ZM752.8 67.7a4.7 4.7 0 1 1-9.5 0 4.7 4.7 0 0 1 9.5 0ZM765.4 67.7a4.7 4.7 0 1 1-9.5 0 4.7 4.7 0 0 1 9.5 0ZM778 67.7a4.7 4.7 0 1 1-9.5 0 4.7 4.7 0 0 1 9.5 0ZM790.6 67.7a4.7 4.7 0 1 1-9.5 0 4.7 4.7 0 0 1 9.5 0ZM803.2 67.7a4.7 4.7 0 1 1-9.5 0 4.7 4.7 0 0 1 9.5 0ZM815.8 67.7a4.7 4.7 0 1 1-9.5 0 4.7 4.7 0 0 1 9.5 0ZM828.4 67.7a4.7 4.7 0 1 1-9.5 0 4.7 4.7 0 0 1 9.5 0ZM841 67.7a4.7 4.7 0 1 1-9.5 0 4.7 4.7 0 0 1 9.5 0ZM853.6 67.7a4.7 4.7 0 1 1-9.5 0 4.7 4.7 0 0 1 9.5 0ZM866.2 67.7a4.7 4.7 0 1 1-9.5 0 4.7 4.7 0 0 1 9.5 0ZM878.8 67.7a4.7 4.7 0 1 1-9.5 0 4.7 4.7 0 0 1 9.5 0ZM891.5 67.7a4.7 4.7 0 1 1-9.5 0 4.7 4.7 0 0 1 9.5 0ZM904 67.7a4.7 4.7 0 1 1-9.5 0 4.7 4.7 0 0 1 9.5 0ZM916.4 67.7a4.7 4.7 0 1 1-9.4 0 4.7 4.7 0 0 1 9.4 0ZM929.1 67.7a4.7 4.7 0 1 1-9.4 0 4.7 4.7 0 0 1 9.4 0ZM941.8 67.7a4.7 4.7 0 1 1-9.5 0 4.7 4.7 0 0 1 9.5 0ZM954.3 67.7a4.7 4.7 0 1 1-9.4 0 4.7 4.7 0 0 1 9.4 0ZM967 67.7a4.7 4.7 0 1 1-9.5 0 4.7 4.7 0 0 1 9.4 0ZM979.5 67.7a4.7 4.7 0 1 1-9.4 0 4.7 4.7 0 0 1 9.4 0ZM992.1 67.7a4.7 4.7 0 1 1-9.4 0 4.7 4.7 0 0 1 9.4 0ZM1004.8 67.7a4.8 4.8 0 0 1-5.7 4.7 4.7 4.7 0 1 1 5.6-4.7ZM1017.3 67.7a4.7 4.7 0 0 1-8 3.3 4.7 4.7 0 0 1 .7-7.2 4.7 4.7 0 0 1 7.3 4ZM1030 67.7a4.8 4.8 0 0 1-3 4.4 4.7 4.7 0 0 1-6.2-6.2 4.7 4.7 0 0 1 4.4-3 4.7 4.7 0 0 1 4.7 4.8ZM1042.5 67.7a4.7 4.7 0 0 1-8 3.3 4.7 4.7 0 0 1 .7-7.2 4.7 4.7 0 0 1 7.3 4ZM1055.1 67.7a4.7 4.7 0 0 1-8 3.3 4.8 4.8 0 0 1-1.3-2.4c-.2-.9-.1-1.8.3-2.7a4.8 4.8 0 0 1 4.3-3 4.7 4.7 0 0 1 4.7 4.8ZM1067.7 67.7a4.8 4.8 0 0 1-5.6 4.7 4.7 4.7 0 1 1 5.6-4.7ZM4.7 85a4.7 4.7 0 1 0 0-9.4 4.7 4.7 0 0 0 0 9.4ZM17.4 85a4.7 4.7 0 1 0 0-9.4 4.7 4.7 0 0 0 0 9.4ZM30 85a4.7 4.7 0 1 0 0-9.4 4.7 4.7 0 0 0 0 9.4ZM47.3 80.3a4.7 4.7 0 1 1-9.5 0 4.7 4.7 0 0 1 9.5 0ZM55.2 85a4.7 4.7 0 1 0 0-9.4 4.7 4.7 0 0 0 0 9.4ZM72.6 80.3a4.7 4.7 0 1 1-9.5 0 4.7 4.7 0 0 1 9.5 0ZM85 80.3a4.7 4.7 0 1 1-9.4 0 4.7 4.7 0 0 1 9.4 0ZM97.7 80.3a4.7 4.7 0 1 1-9.5 0 4.7 4.7 0 0 1 9.5 0ZM110.3 80.3a4.7 4.7 0 1 1-9.5 0 4.7 4.7 0 0 1 9.5 0ZM118.1 85a4.7 4.7 0 1 0 0-9.4 4.7 4.7 0 0 0 0 9.4ZM135.5 80.3a4.7 4.7 0 1 1-9.5 0 4.7 4.7 0 0 1 9.5 0ZM143.3 85a4.7 4.7 0 1 0 0-9.4 4.7 4.7 0 0 0 0 9.4ZM160.7 80.3a4.7 4.7 0 1 1-9.5 0 4.7 4.7 0 0 1 9.5 0ZM173.2 80.3a4.7 4.7 0 1 1-9.4 0 4.7 4.7 0 0 1 9.4 0ZM181.1 85a4.7 4.7 0 1 0 0-9.4 4.7 4.7 0 0 0 0 9.4ZM198.5 80.3a4.7 4.7 0 1 1-9.5 0 4.7 4.7 0 0 1 9.5 0ZM206.3 85a4.7 4.7 0 1 0 0-9.4 4.7 4.7 0 0 0 0 9.4ZM223.7 80.3a4.7 4.7 0 1 1-9.5 0 4.7 4.7 0 0 1 9.5 0ZM286.6 80.3a4.7 4.7 0 1 1-9.4 0 4.7 4.7 0 0 1 9.4 0ZM299.2 80.3a4.7 4.7 0 1 1-9.4 0 4.7 4.7 0 0 1 9.4 0ZM307.1 85a4.7 4.7 0 1 0 0-9.4 4.7 4.7 0 0 0 0 9.4ZM546.5 85a4.7 4.7 0 1 0 0-9.4 4.7 4.7 0 0 0 0 9.4ZM563.8 80.3a4.7 4.7 0 1 1-9.5 0 4.7 4.7 0 0 1 9.5 0ZM576.4 80.3a4.7 4.7 0 1 1-9.4 0 4.7 4.7 0 0 1 9.4 0ZM601.6 80.3a4.7 4.7 0 1 1-9.5 0 4.7 4.7 0 0 1 9.5 0ZM609.5 85a4.7 4.7 0 1 0 0-9.4 4.7 4.7 0 0 0 0 9.4ZM626.8 80.3a4.7 4.7 0 1 1-9.5 0 4.7 4.7 0 0 1 9.5 0ZM639.3 80.3a4.7 4.7 0 1 1-9.4 0 4.7 4.7 0 0 1 9.4 0ZM647.3 85a4.7 4.7 0 1 0 0-9.4 4.7 4.7 0 0 0 0 9.4ZM664.6 80.3a4.7 4.7 0 1 1-9.5 0 4.7 4.7 0 0 1 9.5 0ZM672.5 85a4.7 4.7 0 1 0 0-9.4 4.7 4.7 0 0 0 0 9.4ZM689.8 80.3a4.7 4.7 0 1 1-9.5 0 4.7 4.7 0 0 1 9.5 0ZM702.4 80.3a4.7 4.7 0 1 1-9.5 0 4.7 4.7 0 0 1 9.5 0ZM715 80.3a4.7 4.7 0 1 1-9.5 0 4.7 4.7 0 0 1 9.5 0ZM727.6 80.3a4.7 4.7 0 1 1-9.5 0 4.7 4.7 0 0 1 9.5 0ZM735.5 85a4.7 4.7 0 1 0 0-9.4 4.7 4.7 0 0 0 0 9.4ZM752.8 80.3a4.7 4.7 0 1 1-9.5 0 4.7 4.7 0 0 1 9.5 0ZM765.4 80.3a4.7 4.7 0 1 1-9.5 0 4.7 4.7 0 0 1 9.5 0ZM778 80.3a4.7 4.7 0 1 1-9.5 0 4.7 4.7 0 0 1 9.5 0ZM790.6 80.3a4.7 4.7 0 1 1-9.5 0 4.7 4.7 0 0 1 9.5 0ZM798.4 85a4.7 4.7 0 1 0 0-9.4 4.7 4.7 0 0 0 0 9.4ZM815.8 80.3a4.7 4.7 0 1 1-9.5 0 4.7 4.7 0 0 1 9.5 0ZM823.6 85a4.7 4.7 0 1 0 0-9.4 4.7 4.7 0 0 0 0 9.4ZM841 80.3a4.7 4.7 0 1 1-9.5 0 4.7 4.7 0 0 1 9.5 0ZM853.6 80.3a4.7 4.7 0 1 1-9.5 0 4.7 4.7 0 0 1 9.5 0ZM861.4 85a4.7 4.7 0 1 0 0-9.4 4.7 4.7 0 0 0 0 9.4ZM878.8 80.3a4.7 4.7 0 1 1-9.5 0 4.7 4.7 0 0 1 9.5 0ZM886.6 85a4.7 4.7 0 1 0 0-9.4 4.7 4.7 0 0 0 0 9.4ZM904 80.3a4.7 4.7 0 1 1-9.5 0 4.7 4.7 0 0 1 9.5 0ZM916.4 80.3a4.7 4.7 0 1 1-9.4 0 4.7 4.7 0 0 1 9.4 0ZM924.4 85a4.7 4.7 0 1 0 0-9.4 4.7 4.7 0 0 0 0 9.4ZM941.8 80.3a4.7 4.7 0 1 1-9.5 0 4.7 4.7 0 0 1 9.5 0ZM949.6 85a4.7 4.7 0 1 0 0-9.4 4.7 4.7 0 0 0 0 9.4ZM967 80.3a4.7 4.7 0 1 1-9.5 0 4.7 4.7 0 0 1 9.4 0ZM979.5 80.3a4.7 4.7 0 1 1-9.4 0 4.7 4.7 0 0 1 9.4 0ZM987.4 85a4.7 4.7 0 1 0 0-9.4 4.7 4.7 0 0 0 0 9.4ZM1004.8 80.3A4.8 4.8 0 0 1 999 85a4.7 4.7 0 1 1 5.6-4.7ZM1030 80.3a4.8 4.8 0 0 1-3 4.4 4.7 4.7 0 0 1-6.2-6.2 4.7 4.7 0 0 1 4.4-3 4.7 4.7 0 0 1 4.7 4.8ZM1042.5 80.3a4.7 4.7 0 0 1-8 3.3 4.7 4.7 0 0 1 .7-7.2 4.7 4.7 0 0 1 7.3 3.9ZM1050.4 85a4.7 4.7 0 1 0 0-9.4 4.7 4.7 0 0 0 0 9.4ZM9.5 92.9a4.7 4.7 0 1 1-9.5 0 4.7 4.7 0 0 1 9.5 0ZM22 92.9a4.7 4.7 0 1 1-9.4 0 4.7 4.7 0 0 1 9.5 0ZM34.7 92.9a4.7 4.7 0 1 1-9.5 0 4.7 4.7 0 0 1 9.5 0ZM85 92.9a4.7 4.7 0 1 1-9.4 0 4.7 4.7 0 0 1 9.4 0ZM97.7 92.9a4.7 4.7 0 1 1-9.5 0 4.7 4.7 0 0 1 9.5 0ZM110.3 92.9a4.7 4.7 0 1 1-9.5 0 4.7 4.7 0 0 1 9.5 0ZM122.9 92.9a4.7 4.7 0 1 1-9.5 0 4.7 4.7 0 0 1 9.5 0ZM135.5 92.9a4.7 4.7 0 1 1-9.5 0 4.7 4.7 0 0 1 9.5 0ZM148 92.9a4.7 4.7 0 1 1-9.4 0 4.7 4.7 0 0 1 9.5 0ZM160.7 92.9a4.7 4.7 0 1 1-9.5 0 4.7 4.7 0 0 1 9.5 0ZM173.2 92.9a4.7 4.7 0 1 1-9.4 0 4.7 4.7 0 0 1 9.4 0ZM185.9 92.9a4.7 4.7 0 1 1-9.5 0 4.7 4.7 0 0 1 9.5 0ZM198.5 92.9a4.7 4.7 0 1 1-9.5 0 4.7 4.7 0 0 1 9.5 0ZM211 92.9a4.7 4.7 0 1 1-9.4 0 4.7 4.7 0 0 1 9.4 0ZM223.7 92.9a4.7 4.7 0 1 1-9.5 0 4.7 4.7 0 0 1 9.5 0ZM286.6 92.9a4.7 4.7 0 1 1-9.4 0 4.7 4.7 0 0 1 9.4 0ZM299.2 92.9a4.7 4.7 0 1 1-9.4 0 4.7 4.7 0 0 1 9.4 0ZM311.8 92.9a4.7 4.7 0 1 1-9.4 0 4.7 4.7 0 0 1 9.4 0ZM324.4 92.9a4.7 4.7 0 1 1-9.4 0 4.7 4.7 0 0 1 9.4 0ZM500.8 92.9a4.7 4.7 0 1 1-9.5 0 4.7 4.7 0 0 1 9.5 0ZM513.4 92.9a4.7 4.7 0 1 1-9.4 0 4.7 4.7 0 0 1 9.4 0ZM563.8 92.9a4.7 4.7 0 1 1-9.5 0 4.7 4.7 0 0 1 9.5 0ZM576.4 92.9a4.7 4.7 0 1 1-9.4 0 4.7 4.7 0 0 1 9.4 0ZM601.6 92.9a4.7 4.7 0 1 1-9.5 0 4.7 4.7 0 0 1 9.5 0ZM614.2 92.9a4.7 4.7 0 1 1-9.4 0 4.7 4.7 0 0 1 9.4 0ZM626.8 92.9a4.7 4.7 0 1 1-9.5 0 4.7 4.7 0 0 1 9.5 0ZM639.3 92.9a4.7 4.7 0 1 1-9.4 0 4.7 4.7 0 0 1 9.4 0ZM652 92.9a4.7 4.7 0 1 1-9.4 0 4.7 4.7 0 0 1 9.4 0ZM664.6 92.9a4.7 4.7 0 1 1-9.5 0 4.7 4.7 0 0 1 9.5 0ZM677.2 92.9a4.7 4.7 0 1 1-9.4 0 4.7 4.7 0 0 1 9.4 0ZM689.8 92.9a4.7 4.7 0 1 1-9.5 0 4.7 4.7 0 0 1 9.5 0ZM702.4 92.9a4.7 4.7 0 1 1-9.5 0 4.7 4.7 0 0 1 9.5 0ZM715 92.9a4.7 4.7 0 1 1-9.5 0 4.7 4.7 0 0 1 9.5 0ZM727.6 92.9a4.7 4.7 0 1 1-9.5 0 4.7 4.7 0 0 1 9.5 0ZM740.2 92.9a4.7 4.7 0 1 1-9.5 0 4.7 4.7 0 0 1 9.5 0ZM752.8 92.9a4.7 4.7 0 1 1-9.5 0 4.7 4.7 0 0 1 9.5 0ZM765.4 92.9a4.7 4.7 0 1 1-9.5 0 4.7 4.7 0 0 1 9.5 0ZM778 92.9a4.7 4.7 0 1 1-9.5 0 4.7 4.7 0 0 1 9.5 0ZM790.6 92.9a4.7 4.7 0 1 1-9.5 0 4.7 4.7 0 0 1 9.5 0ZM803.2 92.9a4.7 4.7 0 1 1-9.5 0 4.7 4.7 0 0 1 9.5 0ZM815.8 92.9a4.7 4.7 0 1 1-9.5 0 4.7 4.7 0 0 1 9.5 0ZM828.4 92.9a4.7 4.7 0 1 1-9.5 0 4.7 4.7 0 0 1 9.5 0ZM841 92.9a4.7 4.7 0 1 1-9.5 0 4.7 4.7 0 0 1 9.5 0ZM853.6 92.9a4.7 4.7 0 1 1-9.5 0 4.7 4.7 0 0 1 9.5 0ZM866.2 92.9a4.7 4.7 0 1 1-9.5 0 4.7 4.7 0 0 1 9.5 0ZM878.8 92.9a4.7 4.7 0 1 1-9.5 0 4.7 4.7 0 0 1 9.5 0ZM891.5 92.9a4.7 4.7 0 1 1-9.5 0 4.7 4.7 0 0 1 9.5 0ZM904 92.9a4.7 4.7 0 1 1-9.5 0 4.7 4.7 0 0 1 9.5 0ZM916.4 92.9a4.7 4.7 0 1 1-9.4 0 4.7 4.7 0 0 1 9.4 0ZM929.1 92.9a4.7 4.7 0 1 1-9.4 0 4.7 4.7 0 0 1 9.4 0ZM941.8 92.9a4.7 4.7 0 1 1-9.5 0 4.7 4.7 0 0 1 9.5 0ZM954.3 92.9a4.7 4.7 0 1 1-9.4 0 4.7 4.7 0 0 1 9.4 0ZM967 92.9a4.7 4.7 0 1 1-9.5 0 4.7 4.7 0 0 1 9.4 0ZM1030 92.9a4.8 4.8 0 0 1-3 4.4 4.7 4.7 0 0 1-6.2-6.2 4.7 4.7 0 0 1 4.4-3 4.7 4.7 0 0 1 4.7 4.8ZM1042.5 92.9a4.7 4.7 0 0 1-8 3.3 4.7 4.7 0 0 1 .7-7.2 4.7 4.7 0 0 1 7.3 3.9ZM85 105.5a4.7 4.7 0 1 1-9.4 0 4.7 4.7 0 0 1 9.4 0ZM97.7 105.5a4.7 4.7 0 1 1-9.5 0 4.7 4.7 0 0 1 9.5 0ZM110.3 105.5a4.7 4.7 0 1 1-9.5 0 4.7 4.7 0 0 1 9.5 0ZM118.1 110.2a4.7 4.7 0 1 0 0-9.4 4.7 4.7 0 0 0 0 9.4ZM135.5 105.5a4.7 4.7 0 1 1-9.5 0 4.7 4.7 0 0 1 9.5 0ZM143.3 110.2a4.7 4.7 0 1 0 0-9.4 4.7 4.7 0 0 0 0 9.4ZM160.7 105.5a4.7 4.7 0 1 1-9.5 0 4.7 4.7 0 0 1 9.5 0ZM173.2 105.5a4.7 4.7 0 1 1-9.4 0 4.7 4.7 0 0 1 9.4 0ZM181.1 110.2a4.7 4.7 0 1 0 0-9.4 4.7 4.7 0 0 0 0 9.4ZM198.5 105.5a4.7 4.7 0 1 1-9.5 0 4.7 4.7 0 0 1 9.5 0ZM206.3 110.2a4.7 4.7 0 1 0 0-9.4 4.7 4.7 0 0 0 0 9.4ZM223.7 105.5a4.7 4.7 0 1 1-9.5 0 4.7 4.7 0 0 1 9.5 0ZM236.2 105.5a4.7 4.7 0 1 1-9.4 0 4.7 4.7 0 0 1 9.4 0ZM244.1 110.2a4.7 4.7 0 1 0 0-9.4 4.7 4.7 0 0 0 0 9.4ZM261.4 105.5a4.7 4.7 0 1 1-9.4 0 4.7 4.7 0 0 1 9.4 0ZM269.3 110.2a4.7 4.7 0 1 0 0-9.4 4.7 4.7 0 0 0 0 9.4ZM286.6 105.5a4.7 4.7 0 1 1-9.4 0 4.7 4.7 0 0 1 9.4 0ZM299.2 105.5a4.7 4.7 0 1 1-9.4 0 4.7 4.7 0 0 1 9.4 0ZM307.1 110.2a4.7 4.7 0 1 0 0-9.4 4.7 4.7 0 0 0 0 9.4ZM324.4 105.5a4.7 4.7 0 1 1-9.4 0 4.7 4.7 0 0 1 9.4 0ZM332.3 110.2a4.7 4.7 0 1 0 0-9.4 4.7 4.7 0 0 0 0 9.4ZM483.5 110.2a4.7 4.7 0 1 0 0-9.4 4.7 4.7 0 0 0 0 9.4ZM500.8 105.5a4.7 4.7 0 1 1-9.5 0 4.7 4.7 0 0 1 9.5 0ZM513.4 105.5a4.7 4.7 0 1 1-9.4 0 4.7 4.7 0 0 1 9.4 0ZM546.5 110.2a4.7 4.7 0 1 0 0-9.4 4.7 4.7 0 0 0 0 9.4ZM563.8 105.5a4.7 4.7 0 1 1-9.5 0 4.7 4.7 0 0 1 9.5 0ZM576.4 105.5a4.7 4.7 0 1 1-9.4 0 4.7 4.7 0 0 1 9.4 0ZM584.3 110.2a4.7 4.7 0 1 0 0-9.4 4.7 4.7 0 0 0 0 9.4ZM601.6 105.5a4.7 4.7 0 1 1-9.5 0 4.7 4.7 0 0 1 9.5 0ZM609.5 110.2a4.7 4.7 0 1 0 0-9.4 4.7 4.7 0 0 0 0 9.4ZM626.8 105.5a4.7 4.7 0 1 1-9.4 0 4.7 4.7 0 0 1 9.4 0ZM639.3 105.5a4.7 4.7 0 1 1-9.4 0 4.7 4.7 0 0 1 9.4 0ZM647.3 110.2a4.7 4.7 0 1 0 0-9.4 4.7 4.7 0 0 0 0 9.4ZM664.6 105.5a4.7 4.7 0 1 1-9.5 0 4.7 4.7 0 0 1 9.5 0ZM672.5 110.2a4.7 4.7 0 1 0 0-9.4 4.7 4.7 0 0 0 0 9.4ZM689.8 105.5a4.7 4.7 0 1 1-9.5 0 4.7 4.7 0 0 1 9.5 0ZM702.4 105.5a4.7 4.7 0 1 1-9.5 0 4.7 4.7 0 0 1 9.5 0ZM715 105.5a4.7 4.7 0 1 1-9.5 0 4.7 4.7 0 0 1 9.5 0ZM727.6 105.5a4.7 4.7 0 1 1-9.5 0 4.7 4.7 0 0 1 9.5 0ZM735.5 110.2a4.7 4.7 0 1 0 0-9.4 4.7 4.7 0 0 0 0 9.4ZM752.8 105.5a4.7 4.7 0 1 1-9.5 0 4.7 4.7 0 0 1 9.5 0ZM765.4 105.5a4.7 4.7 0 1 1-9.5 0 4.7 4.7 0 0 1 9.5 0ZM778 105.5a4.7 4.7 0 1 1-9.5 0 4.7 4.7 0 0 1 9.5 0ZM790.6 105.5a4.7 4.7 0 1 1-9.5 0 4.7 4.7 0 0 1 9.5 0ZM798.4 110.2a4.7 4.7 0 1 0 0-9.4 4.7 4.7 0 0 0 0 9.4ZM815.8 105.5a4.7 4.7 0 1 1-9.5 0 4.7 4.7 0 0 1 9.5 0ZM823.6 110.2a4.7 4.7 0 1 0 0-9.4 4.7 4.7 0 0 0 0 9.4ZM841 105.5a4.7 4.7 0 1 1-9.5 0 4.7 4.7 0 0 1 9.5 0ZM853.6 105.5a4.7 4.7 0 1 1-9.5 0 4.7 4.7 0 0 1 9.5 0ZM861.4 110.2a4.7 4.7 0 1 0 0-9.4 4.7 4.7 0 0 0 0 9.4ZM878.8 105.5a4.7 4.7 0 1 1-9.5 0 4.7 4.7 0 0 1 9.5 0ZM886.6 110.2a4.7 4.7 0 1 0 0-9.4 4.7 4.7 0 0 0 0 9.4ZM904 105.5a4.7 4.7 0 1 1-9.5 0 4.7 4.7 0 0 1 9.5 0ZM916.4 105.5a4.7 4.7 0 1 1-9.4 0 4.7 4.7 0 0 1 9.4 0ZM924.4 110.2a4.7 4.7 0 1 0 0-9.4 4.7 4.7 0 0 0 0 9.4ZM941.8 105.5a4.7 4.7 0 1 1-9.5 0 4.7 4.7 0 0 1 9.5 0ZM949.6 110.2a4.7 4.7 0 1 0 0-9.4 4.7 4.7 0 0 0 0 9.4ZM967 105.5a4.7 4.7 0 1 1-9.5 0 4.7 4.7 0 0 1 9.4 0ZM979.5 105.5a4.7 4.7 0 1 1-9.4 0 4.7 4.7 0 0 1 9.4 0ZM987.4 110.2a4.7 4.7 0 1 0 0-9.4 4.7 4.7 0 0 0 0 9.4ZM1042.5 105.5a4.7 4.7 0 0 1-5.6 4.6 4.7 4.7 0 0 1-3.7-3.7 4.7 4.7 0 0 1 2-4.8 4.7 4.7 0 0 1 6 .6 4.6 4.6 0 0 1 1.3 3.3ZM1050.4 110.2a4.7 4.7 0 1 0 0-9.4 4.7 4.7 0 0 0 0 9.4ZM85 118.1a4.7 4.7 0 1 1-9.4.1 4.7 4.7 0 0 1 9.4-.1ZM97.7 118.1a4.7 4.7 0 1 1-9.5.2 4.7 4.7 0 0 1 9.5-.2ZM110.3 118.1a4.7 4.7 0 1 1-9.5.1 4.7 4.7 0 0 1 9.5-.1ZM122.9 118.1a4.7 4.7 0 1 1-9.5.2 4.7 4.7 0 0 1 9.5-.2ZM135.5 118.1a4.7 4.7 0 1 1-9.5.2 4.7 4.7 0 0 1 9.5-.2ZM148 118.1a4.7 4.7 0 1 1-9.4.1 4.7 4.7 0 0 1 9.5-.1ZM160.7 118.1a4.7 4.7 0 1 1-9.5.2 4.7 4.7 0 0 1 9.5-.2ZM173.2 118.1a4.7 4.7 0 0 1-8 3.4 4.7 4.7 0 1 1 8-3.4ZM185.9 118.1a4.7 4.7 0 1 1-9.5 0 4.7 4.7 0 0 1 9.5 0ZM198.5 118.1a4.7 4.7 0 1 1-9.5 0 4.7 4.7 0 0 1 9.5 0ZM211 118.1a4.7 4.7 0 1 1-9.4 0 4.7 4.7 0 0 1 9.4 0ZM223.7 118.1a4.7 4.7 0 1 1-9.5 0 4.7 4.7 0 0 1 9.5 0ZM236.2 118.1a4.7 4.7 0 1 1-9.4 0 4.7 4.7 0 0 1 9.4 0ZM248.8 118.1a4.7 4.7 0 1 1-9.4 0 4.7 4.7 0 0 1 9.4 0ZM261.4 118.1a4.7 4.7 0 1 1-9.4 0 4.7 4.7 0 0 1 9.4 0ZM274 118.1a4.7 4.7 0 1 1-9.4 0 4.7 4.7 0 0 1 9.4 0ZM286.6 118.1a4.7 4.7 0 1 1-9.4 0 4.7 4.7 0 0 1 9.4 0ZM299.2 118.1a4.7 4.7 0 1 1-9.4.1 4.7 4.7 0 0 1 9.4-.1ZM311.8 118.1a4.7 4.7 0 1 1-9.4.2 4.7 4.7 0 0 1 9.4-.2ZM324.4 118.1a4.7 4.7 0 1 1-9.4.1 4.7 4.7 0 0 1 9.4-.1ZM337 118.1a4.7 4.7 0 1 1-9.4.1 4.7 4.7 0 0 1 9.4-.1ZM488.2 118.1a4.7 4.7 0 1 1-9.4 0 4.7 4.7 0 0 1 9.4 0ZM513.4 118.1a4.7 4.7 0 1 1-9.4 0 4.7 4.7 0 0 1 9.4 0ZM526 118.1a4.7 4.7 0 1 1-9.4 0 4.7 4.7 0 0 1 9.4 0ZM538.6 118.1a4.7 4.7 0 1 1-9.5 0 4.7 4.7 0 0 1 9.5 0ZM551.2 118.1a4.7 4.7 0 1 1-9.4 0 4.7 4.7 0 0 1 9.4 0ZM563.8 118.1a4.7 4.7 0 1 1-9.5 0 4.7 4.7 0 0 1 9.5 0ZM576.4 118.1a4.7 4.7 0 1 1-9.4 0 4.7 4.7 0 0 1 9.4 0ZM589 118.1a4.7 4.7 0 1 1-9.4.1 4.7 4.7 0 0 1 9.4-.1ZM601.6 118.1a4.8 4.8 0 1 1-9.5.2 4.8 4.8 0 0 1 9.5-.2ZM614.2 118.1a4.7 4.7 0 1 1-9.4 0 4.7 4.7 0 0 1 9.4 0ZM626.8 118.1a4.7 4.7 0 1 1-9.5.2 4.7 4.7 0 0 1 9.5-.2ZM639.3 118.1a4.7 4.7 0 1 1-9.4 0 4.7 4.7 0 0 1 9.4 0ZM652 118.1a4.7 4.7 0 1 1-9.4 0 4.7 4.7 0 0 1 9.4 0ZM664.6 118.1a4.7 4.7 0 1 1-9.5 0 4.7 4.7 0 0 1 9.5 0ZM677.2 118.1a4.7 4.7 0 1 1-9.4 0 4.7 4.7 0 0 1 9.4 0ZM689.8 118.1a4.7 4.7 0 1 1-9.5 0 4.7 4.7 0 0 1 9.5 0ZM702.4 118.1a4.7 4.7 0 1 1-9.5 0 4.7 4.7 0 0 1 9.5 0ZM715 118.1a4.7 4.7 0 1 1-9.5 0 4.7 4.7 0 0 1 9.5 0ZM727.6 118.1a4.7 4.7 0 1 1-9.5 0 4.7 4.7 0 0 1 9.5 0ZM740.2 118.1a4.7 4.7 0 1 1-9.5 0 4.7 4.7 0 0 1 9.5 0ZM752.8 118.1a4.7 4.7 0 1 1-9.5 0 4.7 4.7 0 0 1 9.5 0ZM765.4 118.1a4.7 4.7 0 1 1-9.5.1 4.7 4.7 0 0 1 9.5-.1ZM778 118.1a4.7 4.7 0 1 1-9.5 0 4.7 4.7 0 0 1 9.5 0ZM790.6 118.1a4.7 4.7 0 1 1-9.5 0 4.7 4.7 0 0 1 9.5 0ZM803.2 118.1a4.7 4.7 0 1 1-9.5 0 4.7 4.7 0 0 1 9.5 0ZM815.8 118.1a4.7 4.7 0 1 1-9.5 0 4.7 4.7 0 0 1 9.5 0ZM828.4 118.1a4.7 4.7 0 1 1-9.5 0 4.7 4.7 0 0 1 9.5 0ZM841 118.1a4.7 4.7 0 1 1-9.5 0 4.7 4.7 0 0 1 9.5 0ZM853.6 118.1a4.7 4.7 0 1 1-9.5 0 4.7 4.7 0 0 1 9.5 0ZM866.2 118.1a4.7 4.7 0 1 1-9.5.1 4.7 4.7 0 0 1 9.5-.1ZM878.8 118.1a4.7 4.7 0 1 1-9.5.2 4.7 4.7 0 0 1 9.5-.2ZM891.5 118.1a4.7 4.7 0 1 1-9.5 0 4.7 4.7 0 0 1 9.5 0ZM904 118.1a4.7 4.7 0 1 1-9.5 0 4.7 4.7 0 0 1 9.5 0ZM916.4 118.1a4.7 4.7 0 1 1-9.4 0 4.7 4.7 0 0 1 9.4 0ZM929.1 118.1a4.7 4.7 0 1 1-9.4.1 4.7 4.7 0 0 1 9.4-.1ZM941.8 118.1a4.7 4.7 0 1 1-9.5 0 4.7 4.7 0 0 1 9.5 0ZM954.3 118.1a4.7 4.7 0 1 1-9.4 0 4.7 4.7 0 0 1 9.4 0ZM967 118.1a4.7 4.7 0 1 1-9.5 0 4.7 4.7 0 0 1 9.4 0ZM979.5 118.1a4.7 4.7 0 1 1-9.4 0 4.7 4.7 0 0 1 9.4 0ZM992.1 118.1a4.7 4.7 0 1 1-9.4 0 4.7 4.7 0 0 1 9.4 0ZM1004.8 118.1a4.8 4.8 0 0 1-5.7 4.7 4.7 4.7 0 1 1 5.6-4.7ZM85 130.7a4.7 4.7 0 1 1-9.4-.1 4.7 4.7 0 0 1 9.4.1ZM97.7 130.7a4.7 4.7 0 1 1-9.5 0 4.7 4.7 0 0 1 9.5 0ZM110.3 130.7a4.7 4.7 0 1 1-9.5-.1 4.7 4.7 0 0 1 9.5.1ZM118.1 135.4a4.7 4.7 0 1 0 0-9.4 4.7 4.7 0 0 0 0 9.4ZM135.5 130.7a4.7 4.7 0 1 1-9.5 0 4.7 4.7 0 0 1 9.5 0ZM143.3 135.4a4.7 4.7 0 1 0 0-9.4 4.7 4.7 0 0 0 0 9.4ZM160.7 130.7a4.7 4.7 0 1 1-9.5 0 4.7 4.7 0 0 1 9.5 0ZM173.2 130.7a4.7 4.7 0 1 1-9.4-.1 4.7 4.7 0 0 1 9.4.1ZM181.1 135.4a4.7 4.7 0 1 0 0-9.4 4.7 4.7 0 0 0 0 9.4ZM198.5 130.7a4.7 4.7 0 1 1-9.5 0 4.7 4.7 0 0 1 9.5 0ZM206.3 135.4a4.7 4.7 0 1 0 0-9.4 4.7 4.7 0 0 0 0 9.4ZM223.7 130.7a4.7 4.7 0 1 1-9.5 0 4.7 4.7 0 0 1 9.5 0ZM236.2 130.7a4.7 4.7 0 1 1-9.4 0 4.7 4.7 0 0 1 9.4 0ZM244.1 135.4a4.7 4.7 0 1 0 0-9.4 4.7 4.7 0 0 0 0 9.4ZM261.4 130.7a4.7 4.7 0 1 1-9.4 0 4.7 4.7 0 0 1 9.4 0ZM269.3 135.4a4.7 4.7 0 1 0 0-9.4 4.7 4.7 0 0 0 0 9.4ZM286.6 130.7a4.7 4.7 0 1 1-9.4 0 4.7 4.7 0 0 1 9.4 0ZM299.2 130.7a4.7 4.7 0 1 1-9.4-.1 4.7 4.7 0 0 1 9.4.1ZM324.4 130.7a4.7 4.7 0 1 1-9.4-.1 4.7 4.7 0 0 1 9.4.1ZM332.3 135.4a4.7 4.7 0 1 0 0-9.4 4.7 4.7 0 0 0 0 9.4ZM513.4 130.7a4.7 4.7 0 1 1-9.4 0 4.7 4.7 0 0 1 9.4 0ZM521.3 135.4a4.7 4.7 0 1 0 0-9.4 4.7 4.7 0 0 0 0 9.4ZM538.6 130.7a4.7 4.7 0 1 1-9.5 0 4.7 4.7 0 0 1 9.5 0ZM546.5 135.4a4.7 4.7 0 1 0 0-9.4 4.7 4.7 0 0 0 0 9.4ZM563.8 130.7a4.7 4.7 0 1 1-9.5 0 4.7 4.7 0 0 1 9.5 0ZM576.4 130.7a4.7 4.7 0 1 1-9.4 0 4.7 4.7 0 0 1 9.4 0ZM584.3 135.4a4.7 4.7 0 1 0 0-9.4 4.7 4.7 0 0 0 0 9.4ZM601.6 130.7a4.7 4.7 0 1 1-9.5 0 4.7 4.7 0 0 1 9.5 0ZM609.5 135.4a4.7 4.7 0 1 0 0-9.4 4.7 4.7 0 0 0 0 9.4ZM626.8 130.7a4.7 4.7 0 1 1-9.5 0 4.7 4.7 0 0 1 9.5 0ZM639.3 130.7a4.7 4.7 0 1 1-9.4 0 4.7 4.7 0 0 1 9.4 0ZM647.3 135.4a4.7 4.7 0 1 0 0-9.4 4.7 4.7 0 0 0 0 9.4ZM664.6 130.7a4.7 4.7 0 1 1-9.5 0 4.7 4.7 0 0 1 9.5 0ZM672.5 135.4a4.7 4.7 0 1 0 0-9.4 4.7 4.7 0 0 0 0 9.4ZM689.8 130.7a4.7 4.7 0 1 1-9.5 0 4.7 4.7 0 0 1 9.5 0ZM702.4 130.7a4.7 4.7 0 1 1-9.5 0 4.7 4.7 0 0 1 9.5 0ZM715 130.7a4.7 4.7 0 1 1-9.5 0 4.7 4.7 0 0 1 9.5 0ZM727.6 130.7a4.7 4.7 0 1 1-9.5 0 4.7 4.7 0 0 1 9.5 0ZM735.5 135.4a4.7 4.7 0 1 0 0-9.4 4.7 4.7 0 0 0 0 9.4ZM752.8 130.7a4.7 4.7 0 1 1-9.5 0 4.7 4.7 0 0 1 9.5 0ZM765.4 130.7a4.7 4.7 0 1 1-9.5-.1 4.7 4.7 0 0 1 9.5.1ZM778 130.7a4.7 4.7 0 1 1-9.5 0 4.7 4.7 0 0 1 9.5 0ZM790.6 130.7a4.7 4.7 0 1 1-9.5 0 4.7 4.7 0 0 1 9.5 0ZM798.4 135.4a4.7 4.7 0 1 0 0-9.4 4.7 4.7 0 0 0 0 9.4ZM815.8 130.7a4.7 4.7 0 1 1-9.5 0 4.7 4.7 0 0 1 9.5 0ZM823.6 135.4a4.7 4.7 0 1 0 0-9.4 4.7 4.7 0 0 0 0 9.4ZM841 130.7a4.7 4.7 0 1 1-9.5 0 4.7 4.7 0 0 1 9.5 0ZM853.6 130.7a4.7 4.7 0 1 1-9.5 0 4.7 4.7 0 0 1 9.5 0ZM861.4 135.4a4.7 4.7 0 1 0 0-9.4 4.7 4.7 0 0 0 0 9.4ZM878.8 130.7a4.7 4.7 0 1 1-9.5 0 4.7 4.7 0 0 1 9.5 0ZM886.6 135.4a4.7 4.7 0 1 0 0-9.4 4.7 4.7 0 0 0 0 9.4ZM904 130.7a4.7 4.7 0 1 1-9.5 0 4.7 4.7 0 0 1 9.5 0ZM916.4 130.7a4.7 4.7 0 1 1-9.4 0 4.7 4.7 0 0 1 9.4 0ZM924.4 135.4a4.7 4.7 0 1 0 0-9.4 4.7 4.7 0 0 0 0 9.4ZM941.8 130.7a4.7 4.7 0 1 1-9.5 0 4.7 4.7 0 0 1 9.5 0ZM949.6 135.4a4.7 4.7 0 1 0 0-9.4 4.7 4.7 0 0 0 0 9.4ZM967 130.7a4.7 4.7 0 1 1-9.5 0 4.7 4.7 0 0 1 9.4 0ZM979.5 130.7a4.7 4.7 0 1 1-9.4 0 4.7 4.7 0 0 1 9.4 0ZM987.4 135.4a4.7 4.7 0 1 0 0-9.4 4.7 4.7 0 0 0 0 9.4ZM1004.8 130.7a4.8 4.8 0 0 1-5.7 4.7 4.7 4.7 0 1 1 5.6-4.7ZM1012.6 135.4a4.7 4.7 0 1 0 0-9.4 4.7 4.7 0 0 0 0 9.4ZM85 143.4a4.7 4.7 0 1 1-9.4 0 4.7 4.7 0 0 1 9.4 0ZM97.7 143.4a4.7 4.7 0 1 1-9.5 0 4.7 4.7 0 0 1 9.5 0ZM110.3 143.4a4.7 4.7 0 1 1-9.5 0 4.7 4.7 0 0 1 9.5 0ZM122.9 143.4a4.7 4.7 0 1 1-9.5 0 4.7 4.7 0 0 1 9.5 0ZM135.5 143.4a4.7 4.7 0 1 1-9.5 0 4.7 4.7 0 0 1 9.5 0ZM148 143.4a4.7 4.7 0 1 1-9.4 0 4.7 4.7 0 0 1 9.5 0ZM160.7 143.4a4.7 4.7 0 1 1-9.5 0 4.7 4.7 0 0 1 9.5 0ZM173.2 143.4a4.7 4.7 0 1 1-9.4 0 4.7 4.7 0 0 1 9.4 0ZM185.9 143.4a4.7 4.7 0 1 1-9.5 0 4.7 4.7 0 0 1 9.5 0ZM198.5 143.4a4.7 4.7 0 1 1-9.5 0 4.7 4.7 0 0 1 9.5 0ZM211 143.4a4.7 4.7 0 1 1-9.4 0 4.7 4.7 0 0 1 9.4 0ZM223.7 143.4a4.7 4.7 0 1 1-9.5 0 4.7 4.7 0 0 1 9.5 0ZM236.2 143.4a4.7 4.7 0 1 1-9.4 0 4.7 4.7 0 0 1 9.4 0ZM248.8 143.4a4.7 4.7 0 1 1-9.4 0 4.7 4.7 0 0 1 9.4 0ZM261.4 143.4a4.7 4.7 0 1 1-9.4 0 4.7 4.7 0 0 1 9.4 0ZM274 143.4a4.7 4.7 0 1 1-9.4 0 4.7 4.7 0 0 1 9.4 0ZM286.6 143.4a4.7 4.7 0 1 1-9.4 0 4.7 4.7 0 0 1 9.4 0ZM299.2 143.4a4.7 4.7 0 1 1-9.4 0 4.7 4.7 0 0 1 9.4 0ZM526 143.4a4.7 4.7 0 1 1-9.4 0 4.7 4.7 0 0 1 9.4 0ZM538.6 143.4a4.7 4.7 0 1 1-9.5 0 4.7 4.7 0 0 1 9.5 0ZM551.2 143.4a4.7 4.7 0 1 1-9.4 0 4.7 4.7 0 0 1 9.4 0ZM563.8 143.4a4.7 4.7 0 1 1-9.5 0 4.7 4.7 0 0 1 9.5 0ZM576.4 143.4a4.7 4.7 0 1 1-9.4 0 4.7 4.7 0 0 1 9.4 0ZM589 143.4a4.7 4.7 0 1 1-9.5 0 4.7 4.7 0 0 1 9.5 0ZM601.6 143.4a4.7 4.7 0 1 1-9.5 0 4.7 4.7 0 0 1 9.5 0ZM614.2 143.4a4.7 4.7 0 1 1-9.4 0 4.7 4.7 0 0 1 9.4 0ZM664.6 143.4a4.7 4.7 0 1 1-9.5 0 4.7 4.7 0 0 1 9.5 0ZM677.2 143.4a4.7 4.7 0 1 1-9.5 0 4.7 4.7 0 0 1 9.5 0ZM715 143.4a4.7 4.7 0 1 1-9.5 0 4.7 4.7 0 0 1 9.5 0ZM727.6 143.4a4.7 4.7 0 1 1-9.5 0 4.7 4.7 0 0 1 9.5 0ZM740.2 143.4a4.7 4.7 0 1 1-9.5 0 4.7 4.7 0 0 1 9.5 0ZM752.8 143.4a4.7 4.7 0 1 1-9.5 0 4.7 4.7 0 0 1 9.5 0ZM765.4 143.4a4.7 4.7 0 1 1-9.5 0 4.7 4.7 0 0 1 9.5 0ZM778 143.4a4.7 4.7 0 1 1-9.5 0 4.7 4.7 0 0 1 9.5 0ZM790.6 143.4a4.7 4.7 0 1 1-9.5 0 4.7 4.7 0 0 1 9.5 0ZM803.2 143.4a4.7 4.7 0 1 1-9.5 0 4.7 4.7 0 0 1 9.5 0ZM815.8 143.4a4.7 4.7 0 1 1-9.5 0 4.7 4.7 0 0 1 9.5 0ZM828.4 143.4a4.7 4.7 0 1 1-9.5 0 4.7 4.7 0 0 1 9.5 0ZM841 143.4a4.7 4.7 0 1 1-9.5 0 4.7 4.7 0 0 1 9.5 0ZM853.6 143.4a4.7 4.7 0 1 1-9.5 0 4.7 4.7 0 0 1 9.5 0ZM866.2 143.4a4.7 4.7 0 1 1-9.5 0 4.7 4.7 0 0 1 9.5 0ZM878.8 143.4a4.7 4.7 0 1 1-9.5 0 4.7 4.7 0 0 1 9.5 0ZM891.5 143.4a4.7 4.7 0 1 1-9.5 0 4.7 4.7 0 0 1 9.5 0ZM904 143.4a4.7 4.7 0 1 1-9.5 0 4.7 4.7 0 0 1 9.5 0ZM916.4 143.4a4.7 4.7 0 1 1-9.4 0 4.7 4.7 0 0 1 9.4 0ZM929.1 143.4a4.7 4.7 0 1 1-9.4 0 4.7 4.7 0 0 1 9.4 0ZM941.8 143.4a4.7 4.7 0 1 1-9.5 0 4.7 4.7 0 0 1 9.5 0ZM954.3 143.4a4.7 4.7 0 1 1-9.4 0 4.7 4.7 0 0 1 9.4 0ZM967 143.4a4.7 4.7 0 1 1-9.5 0 4.7 4.7 0 0 1 9.4 0ZM979.5 143.4a4.7 4.7 0 1 1-9.4 0 4.7 4.7 0 0 1 9.4 0ZM992.1 143.4a4.7 4.7 0 1 1-9.4 0 4.7 4.7 0 0 1 9.4 0ZM1017.3 143.4a4.7 4.7 0 0 1-9.3 1 4.7 4.7 0 1 1 9.3-1ZM1030 143.4a4.8 4.8 0 0 1-3 4.4 4.7 4.7 0 0 1-6.2-6.2 4.7 4.7 0 0 1 4.4-3 4.7 4.7 0 0 1 4.7 4.8ZM72.6 155.9a4.7 4.7 0 1 1-9.5 0 4.7 4.7 0 0 1 9.5 0ZM85 155.9a4.7 4.7 0 1 1-9.4 0 4.7 4.7 0 0 1 9.4 0ZM97.7 155.9a4.7 4.7 0 1 1-9.5 0 4.7 4.7 0 0 1 9.5 0ZM110.3 155.9a4.7 4.7 0 1 1-9.5 0 4.7 4.7 0 0 1 9.5 0ZM118.1 160.6a4.7 4.7 0 1 0 0-9.4 4.7 4.7 0 0 0 0 9.4ZM135.5 155.9a4.7 4.7 0 1 1-9.5 0 4.7 4.7 0 0 1 9.5 0ZM143.3 160.6a4.7 4.7 0 1 0 0-9.4 4.7 4.7 0 0 0 0 9.4ZM160.7 155.9a4.7 4.7 0 1 1-9.5 0 4.7 4.7 0 0 1 9.5 0ZM173.2 155.9a4.7 4.7 0 1 1-9.4 0 4.7 4.7 0 0 1 9.4 0ZM181.1 160.6a4.7 4.7 0 1 0 0-9.4 4.7 4.7 0 0 0 0 9.4ZM198.5 155.9a4.7 4.7 0 1 1-9.5 0 4.7 4.7 0 0 1 9.5 0ZM206.3 160.6a4.7 4.7 0 1 0 0-9.4 4.7 4.7 0 0 0 0 9.4ZM223.7 155.9a4.7 4.7 0 1 1-9.5 0 4.7 4.7 0 0 1 9.5 0ZM236.2 155.9a4.7 4.7 0 1 1-9.4 0 4.7 4.7 0 0 1 9.4 0ZM244.1 160.6a4.7 4.7 0 1 0 0-9.4 4.7 4.7 0 0 0 0 9.4ZM261.4 155.9a4.7 4.7 0 1 1-9.4 0 4.7 4.7 0 0 1 9.4 0ZM483.5 160.6a4.7 4.7 0 1 0 0-9.4 4.7 4.7 0 0 0 0 9.4ZM500.8 155.9a4.7 4.7 0 1 1-9.5 0 4.7 4.7 0 0 1 9.5 0ZM513.4 155.9a4.7 4.7 0 1 1-9.4 0 4.7 4.7 0 0 1 9.4 0ZM521.3 160.6a4.7 4.7 0 1 0 0-9.4 4.7 4.7 0 0 0 0 9.4ZM576.4 155.9a4.7 4.7 0 1 1-9.4 0 4.7 4.7 0 0 1 9.4 0ZM584.3 160.6a4.7 4.7 0 1 0 0-9.4 4.7 4.7 0 0 0 0 9.4ZM601.6 155.9a4.7 4.7 0 1 1-9.5 0 4.7 4.7 0 0 1 9.5 0ZM609.5 160.6a4.7 4.7 0 1 0 0-9.4 4.7 4.7 0 0 0 0 9.4ZM672.5 160.6a4.7 4.7 0 1 0 0-9.4 4.7 4.7 0 0 0 0 9.4ZM689.8 155.9a4.7 4.7 0 1 1-9.5 0 4.7 4.7 0 0 1 9.5 0ZM715 155.9a4.7 4.7 0 1 1-9.5 0 4.7 4.7 0 0 1 9.5 0ZM727.6 155.9a4.7 4.7 0 1 1-9.5 0 4.7 4.7 0 0 1 9.5 0ZM735.5 160.6a4.7 4.7 0 1 0 0-9.4 4.7 4.7 0 0 0 0 9.4ZM752.8 155.9a4.7 4.7 0 1 1-9.5 0 4.7 4.7 0 0 1 9.5 0ZM765.4 155.9a4.7 4.7 0 1 1-9.5 0 4.7 4.7 0 0 1 9.5 0ZM778 155.9a4.7 4.7 0 1 1-9.5 0 4.7 4.7 0 0 1 9.5 0ZM790.6 155.9a4.7 4.7 0 1 1-9.5 0 4.7 4.7 0 0 1 9.5 0ZM798.4 160.6a4.7 4.7 0 1 0 0-9.4 4.7 4.7 0 0 0 0 9.4ZM815.8 155.9a4.7 4.7 0 1 1-9.5 0 4.7 4.7 0 0 1 9.5 0ZM823.6 160.6a4.7 4.7 0 1 0 0-9.4 4.7 4.7 0 0 0 0 9.4ZM841 155.9a4.7 4.7 0 1 1-9.5 0 4.7 4.7 0 0 1 9.5 0ZM853.6 155.9a4.7 4.7 0 1 1-9.5 0 4.7 4.7 0 0 1 9.5 0ZM861.4 160.6a4.7 4.7 0 1 0 0-9.4 4.7 4.7 0 0 0 0 9.4ZM878.8 155.9a4.7 4.7 0 1 1-9.5 0 4.7 4.7 0 0 1 9.5 0ZM886.6 160.6a4.7 4.7 0 1 0 0-9.4 4.7 4.7 0 0 0 0 9.4ZM904 155.9a4.7 4.7 0 1 1-9.5 0 4.7 4.7 0 0 1 9.5 0ZM916.4 155.9a4.7 4.7 0 1 1-9.4 0 4.7 4.7 0 0 1 9.4 0ZM924.4 160.6a4.7 4.7 0 1 0 0-9.4 4.7 4.7 0 0 0 0 9.4ZM941.8 155.9a4.7 4.7 0 1 1-9.5 0 4.7 4.7 0 0 1 9.5 0ZM949.6 160.6a4.7 4.7 0 1 0 0-9.4 4.7 4.7 0 0 0 0 9.4ZM967 155.9a4.7 4.7 0 1 1-9.5 0 4.7 4.7 0 0 1 9.4 0ZM979.5 155.9a4.7 4.7 0 1 1-9.4 0 4.7 4.7 0 0 1 9.4 0ZM1030 155.9a4.8 4.8 0 0 1-3 4.4 4.7 4.7 0 0 1-4.4-8.3 4.7 4.7 0 0 1 6 .6c.8.8 1.3 2 1.3 3.3ZM72.6 168.5a4.7 4.7 0 1 1-9.5 0 4.7 4.7 0 0 1 9.5 0ZM85 168.5a4.7 4.7 0 1 1-9.4 0 4.7 4.7 0 0 1 9.4 0ZM97.7 168.5a4.7 4.7 0 1 1-9.5 0 4.7 4.7 0 0 1 9.5 0ZM110.3 168.5a4.7 4.7 0 1 1-9.5 0 4.7 4.7 0 0 1 9.5 0ZM122.9 168.5a4.7 4.7 0 1 1-9.5 0 4.7 4.7 0 0 1 9.5 0ZM135.5 168.5a4.7 4.7 0 1 1-9.5 0 4.7 4.7 0 0 1 9.5 0ZM148 168.5a4.7 4.7 0 1 1-9.4 0 4.7 4.7 0 0 1 9.5 0ZM160.7 168.5a4.7 4.7 0 1 1-9.5 0 4.7 4.7 0 0 1 9.5 0ZM173.2 168.5a4.7 4.7 0 1 1-9.4 0 4.7 4.7 0 0 1 9.4 0ZM185.9 168.5a4.7 4.7 0 1 1-9.5 0 4.7 4.7 0 0 1 9.5 0ZM198.5 168.5a4.7 4.7 0 1 1-9.5 0 4.7 4.7 0 0 1 9.5 0ZM211 168.5a4.7 4.7 0 1 1-9.4 0 4.7 4.7 0 0 1 9.4 0ZM223.7 168.5a4.7 4.7 0 1 1-9.5 0 4.7 4.7 0 0 1 9.5 0ZM236.2 168.5a4.7 4.7 0 1 1-9.4 0 4.7 4.7 0 0 1 9.4 0ZM248.8 168.5a4.7 4.7 0 1 1-9.4 0 4.7 4.7 0 0 1 9.4 0ZM488.2 168.5a4.7 4.7 0 1 1-9.4 0 4.7 4.7 0 0 1 9.4 0ZM500.8 168.5a4.7 4.7 0 1 1-9.5 0 4.7 4.7 0 0 1 9.5 0ZM513.4 168.5a4.7 4.7 0 0 1-8 3.3 4.7 4.7 0 1 1 8-3.3ZM601.6 168.5a4.7 4.7 0 1 1-9.5 0 4.7 4.7 0 0 1 9.5 0ZM626.8 168.5a4.7 4.7 0 1 1-9.5 0 4.7 4.7 0 0 1 9.5 0ZM639.3 168.5a4.7 4.7 0 1 1-9.4 0 4.7 4.7 0 0 1 9.4 0ZM652 168.5a4.7 4.7 0 1 1-9.5 0 4.7 4.7 0 0 1 9.5 0ZM664.6 168.5a4.7 4.7 0 1 1-9.5 0 4.7 4.7 0 0 1 9.5 0ZM677.2 168.5a4.7 4.7 0 1 1-9.4 0 4.7 4.7 0 0 1 9.4 0ZM689.8 168.5a4.7 4.7 0 1 1-9.5 0 4.7 4.7 0 0 1 9.5 0ZM727.6 168.5a4.7 4.7 0 1 1-9.5 0 4.7 4.7 0 0 1 9.5 0ZM740.2 168.5a4.7 4.7 0 1 1-9.5 0 4.7 4.7 0 0 1 9.5 0ZM752.8 168.5a4.7 4.7 0 1 1-9.5 0 4.7 4.7 0 0 1 9.5 0ZM765.4 168.5a4.7 4.7 0 1 1-9.5 0 4.7 4.7 0 0 1 9.5 0ZM778 168.5a4.7 4.7 0 1 1-9.5 0 4.7 4.7 0 0 1 9.5 0ZM790.6 168.5a4.7 4.7 0 1 1-9.5 0 4.7 4.7 0 0 1 9.5 0ZM803.2 168.5a4.7 4.7 0 1 1-9.5 0 4.7 4.7 0 0 1 9.5 0ZM815.8 168.5a4.7 4.7 0 1 1-9.5 0 4.7 4.7 0 0 1 9.5 0ZM828.4 168.5a4.7 4.7 0 0 1-8.1 3.3 4.7 4.7 0 1 1 8-3.3ZM841 168.5a4.7 4.7 0 1 1-9.5 0 4.7 4.7 0 0 1 9.5 0ZM853.6 168.5a4.7 4.7 0 1 1-9.5 0 4.7 4.7 0 0 1 9.5 0ZM866.2 168.5a4.7 4.7 0 1 1-9.5 0 4.7 4.7 0 0 1 9.5 0ZM878.8 168.5a4.7 4.7 0 1 1-9.5 0 4.7 4.7 0 0 1 9.5 0ZM891.5 168.5a4.7 4.7 0 1 1-9.5 0 4.7 4.7 0 0 1 9.5 0ZM904 168.5a4.7 4.7 0 1 1-9.5 0 4.7 4.7 0 0 1 9.5 0ZM916.4 168.5a4.7 4.7 0 1 1-9.4 0 4.7 4.7 0 0 1 9.4 0ZM929.1 168.5a4.7 4.7 0 1 1-9.4 0 4.7 4.7 0 0 1 9.4 0ZM941.8 168.5a4.7 4.7 0 1 1-9.5 0 4.7 4.7 0 0 1 9.5 0ZM954.3 168.5a4.7 4.7 0 1 1-9.4 0 4.7 4.7 0 0 1 9.4 0ZM967 168.5a4.7 4.7 0 1 1-9.5 0 4.7 4.7 0 0 1 9.4 0ZM979.5 168.5a4.7 4.7 0 1 1-9.4 0 4.7 4.7 0 0 1 9.4 0ZM1030 168.5a4.8 4.8 0 0 1-5.7 4.7 4.8 4.8 0 0 1-3.8-3.8 4.8 4.8 0 0 1 4.7-5.6 4.7 4.7 0 0 1 4.7 4.7ZM72.6 181a4.7 4.7 0 1 1-9.5.1 4.7 4.7 0 0 1 9.5 0ZM85 181a4.7 4.7 0 1 1-9.4 0 4.7 4.7 0 0 1 9.4 0ZM97.7 181a4.7 4.7 0 1 1-9.5.1 4.7 4.7 0 0 1 9.5 0ZM110.3 181a4.7 4.7 0 1 1-9.5 0 4.7 4.7 0 0 1 9.5 0ZM122.9 181a4.7 4.7 0 1 1-9.5.1 4.7 4.7 0 0 1 9.5 0ZM135.5 181a4.7 4.7 0 1 1-9.5.1 4.7 4.7 0 0 1 9.5 0ZM148 181a4.7 4.7 0 1 1-9.4 0 4.7 4.7 0 0 1 9.5 0ZM160.7 181a4.7 4.7 0 1 1-9.5.1 4.7 4.7 0 0 1 9.5 0ZM173.2 181a4.7 4.7 0 1 1-9.4 0 4.7 4.7 0 0 1 9.4 0ZM185.9 181a4.7 4.7 0 1 1-9.5.1 4.7 4.7 0 0 1 9.5 0ZM198.5 181a4.7 4.7 0 1 1-9.5.1 4.7 4.7 0 0 1 9.5 0ZM211 181a4.7 4.7 0 1 1-9.4 0 4.7 4.7 0 0 1 9.4 0ZM223.7 181a4.7 4.7 0 1 1-9.5.1 4.7 4.7 0 0 1 9.5 0ZM236.2 181a4.7 4.7 0 1 1-9.4 0 4.7 4.7 0 0 1 9.4 0ZM500.8 181a4.7 4.7 0 1 1-9.5.1 4.7 4.7 0 0 1 9.5 0ZM513.4 181a4.7 4.7 0 1 1-9.4 0 4.7 4.7 0 0 1 9.4 0ZM526 181a4.7 4.7 0 1 1-9.4 0 4.7 4.7 0 0 1 9.4 0ZM538.6 181a4.7 4.7 0 1 1-9.5.1 4.7 4.7 0 0 1 9.5 0ZM551.2 181a4.7 4.7 0 1 1-9.4 0 4.7 4.7 0 0 1 9.4 0ZM626.8 181a4.7 4.7 0 1 1-9.5.1 4.7 4.7 0 0 1 9.5 0ZM639.3 181a4.7 4.7 0 1 1-9.4 0 4.7 4.7 0 0 1 9.4 0ZM652 181a4.7 4.7 0 1 1-9.4 0 4.7 4.7 0 0 1 9.4 0ZM664.6 181a4.7 4.7 0 1 1-9.5.1 4.7 4.7 0 0 1 9.5 0ZM677.2 181a4.7 4.7 0 1 1-9.5 0 4.7 4.7 0 0 1 9.5 0ZM689.8 181a4.7 4.7 0 1 1-9.5.1 4.7 4.7 0 0 1 9.5 0ZM702.4 181a4.7 4.7 0 1 1-9.5 0 4.7 4.7 0 0 1 9.5 0ZM715 181a4.7 4.7 0 1 1-9.5.1 4.7 4.7 0 0 1 9.5 0ZM727.6 181a4.7 4.7 0 1 1-9.5.1 4.7 4.7 0 0 1 9.5 0ZM740.2 181a4.7 4.7 0 1 1-9.5 0 4.7 4.7 0 0 1 9.5 0ZM752.8 181a4.7 4.7 0 1 1-9.5.1 4.7 4.7 0 0 1 9.5 0ZM765.4 181a4.7 4.7 0 1 1-9.5 0 4.7 4.7 0 0 1 9.5 0ZM778 181a4.7 4.7 0 1 1-9.5.1 4.7 4.7 0 0 1 9.5 0ZM790.6 181a4.7 4.7 0 1 1-9.5.1 4.7 4.7 0 0 1 9.5 0ZM803.2 181a4.7 4.7 0 1 1-9.5 0 4.7 4.7 0 0 1 9.5 0ZM815.8 181a4.7 4.7 0 1 1-9.5.1 4.7 4.7 0 0 1 9.5 0ZM828.4 181a4.7 4.7 0 1 1-9.5 0 4.7 4.7 0 0 1 9.5 0ZM841 181a4.7 4.7 0 1 1-9.5.1 4.7 4.7 0 0 1 9.5 0ZM853.6 181a4.7 4.7 0 1 1-9.5.1 4.7 4.7 0 0 1 9.5 0ZM866.2 181a4.7 4.7 0 1 1-9.5 0 4.7 4.7 0 0 1 9.5 0ZM878.8 181a4.7 4.7 0 1 1-9.5.1 4.7 4.7 0 0 1 9.5 0ZM891.5 181a4.7 4.7 0 1 1-9.5 0 4.7 4.7 0 0 1 9.5 0ZM904 181a4.7 4.7 0 1 1-9.5.1 4.7 4.7 0 0 1 9.5 0ZM916.4 181a4.7 4.7 0 1 1-9.4 0 4.7 4.7 0 0 1 9.4 0ZM929.1 181a4.7 4.7 0 1 1-9.4 0 4.7 4.7 0 0 1 9.4 0ZM941.8 181a4.7 4.7 0 1 1-9.5.1 4.7 4.7 0 0 1 9.5 0ZM954.3 181a4.7 4.7 0 1 1-9.4 0 4.7 4.7 0 0 1 9.4 0ZM967 181a4.7 4.7 0 1 1-9.5.1 4.7 4.7 0 0 1 9.4 0ZM992.1 181a4.7 4.7 0 1 1-9.4 0 4.7 4.7 0 0 1 9.4 0ZM1030 181a4.8 4.8 0 0 1-3 4.5 4.7 4.7 0 0 1-6.2-6.2 4.7 4.7 0 0 1 4.4-3 4.7 4.7 0 0 1 4.7 4.8ZM85 193.7a4.7 4.7 0 1 1-9.4 0 4.7 4.7 0 0 1 9.4 0ZM97.7 193.7a4.7 4.7 0 1 1-9.5 0 4.7 4.7 0 0 1 9.5 0ZM110.3 193.7a4.7 4.7 0 1 1-9.5 0 4.7 4.7 0 0 1 9.5 0ZM122.9 193.7a4.7 4.7 0 1 1-9.5 0 4.7 4.7 0 0 1 9.5 0ZM135.5 193.7a4.7 4.7 0 1 1-9.5 0 4.7 4.7 0 0 1 9.5 0ZM148 193.7a4.7 4.7 0 1 1-9.4 0 4.7 4.7 0 0 1 9.5 0ZM160.7 193.7a4.7 4.7 0 1 1-9.5 0 4.7 4.7 0 0 1 9.5 0ZM173.2 193.7a4.7 4.7 0 1 1-9.4 0 4.7 4.7 0 0 1 9.4 0ZM185.9 193.7a4.7 4.7 0 1 1-9.5 0 4.7 4.7 0 0 1 9.5 0ZM198.5 193.7a4.7 4.7 0 1 1-9.5 0 4.7 4.7 0 0 1 9.5 0ZM211 193.7a4.7 4.7 0 1 1-9.4 0 4.7 4.7 0 0 1 9.4 0ZM223.7 193.7a4.7 4.7 0 1 1-9.5 0 4.7 4.7 0 0 1 9.5 0ZM500.8 193.7a4.7 4.7 0 1 1-9.5 0 4.7 4.7 0 0 1 9.5 0ZM513.4 193.7a4.7 4.7 0 1 1-9.4 0 4.7 4.7 0 0 1 9.4 0ZM526 193.7a4.7 4.7 0 1 1-9.4 0 4.7 4.7 0 0 1 9.4 0ZM538.6 193.7a4.7 4.7 0 1 1-9.5 0 4.7 4.7 0 0 1 9.5 0ZM551.2 193.7a4.7 4.7 0 1 1-9.4 0 4.7 4.7 0 0 1 9.4 0ZM563.8 193.7a4.7 4.7 0 1 1-9.5 0 4.7 4.7 0 0 1 9.5 0ZM652 193.7a4.7 4.7 0 1 1-9.4 0 4.7 4.7 0 0 1 9.4 0ZM664.6 193.7a4.7 4.7 0 1 1-9.5 0 4.7 4.7 0 0 1 9.5 0ZM677.2 193.7a4.7 4.7 0 1 1-9.4 0 4.7 4.7 0 0 1 9.4 0ZM689.8 193.7a4.7 4.7 0 1 1-9.5 0 4.7 4.7 0 0 1 9.5 0ZM702.4 193.7a4.7 4.7 0 1 1-9.5 0 4.7 4.7 0 0 1 9.5 0ZM715 193.7a4.7 4.7 0 1 1-9.5 0 4.7 4.7 0 0 1 9.5 0ZM727.6 193.7a4.7 4.7 0 1 1-9.5 0 4.7 4.7 0 0 1 9.5 0ZM740.2 193.7a4.7 4.7 0 1 1-9.5 0 4.7 4.7 0 0 1 9.5 0ZM752.8 193.7a4.7 4.7 0 1 1-9.5 0 4.7 4.7 0 0 1 9.5 0ZM765.4 193.7a4.7 4.7 0 1 1-9.5 0 4.7 4.7 0 0 1 9.5 0ZM778 193.7a4.7 4.7 0 1 1-9.5 0 4.7 4.7 0 0 1 9.5 0ZM790.6 193.7a4.7 4.7 0 1 1-9.5 0 4.7 4.7 0 0 1 9.5 0ZM803.2 193.7a4.7 4.7 0 1 1-9.5 0 4.7 4.7 0 0 1 9.5 0ZM815.8 193.7a4.7 4.7 0 1 1-9.5 0 4.7 4.7 0 0 1 9.5 0ZM828.4 193.7a4.7 4.7 0 1 1-9.5 0 4.7 4.7 0 0 1 9.5 0ZM841 193.7a4.7 4.7 0 1 1-9.5 0 4.7 4.7 0 0 1 9.5 0ZM853.6 193.7a4.7 4.7 0 1 1-9.5 0 4.7 4.7 0 0 1 9.5 0ZM866.2 193.7a4.7 4.7 0 1 1-9.5 0 4.7 4.7 0 0 1 9.5 0ZM878.8 193.7a4.7 4.7 0 1 1-9.5 0 4.7 4.7 0 0 1 9.5 0ZM891.5 193.7a4.7 4.7 0 1 1-9.5 0 4.7 4.7 0 0 1 9.5 0ZM904 193.7a4.7 4.7 0 1 1-9.5 0 4.7 4.7 0 0 1 9.5 0ZM916.4 193.7a4.7 4.7 0 1 1-9.4 0 4.7 4.7 0 0 1 9.4 0ZM929.1 193.7a4.7 4.7 0 1 1-9.4 0 4.7 4.7 0 0 1 9.4 0ZM941.8 193.7a4.7 4.7 0 1 1-9.5 0 4.7 4.7 0 0 1 9.5 0ZM954.3 193.7a4.7 4.7 0 1 1-9.4 0 4.7 4.7 0 0 1 9.4 0ZM967 193.7a4.7 4.7 0 1 1-9.5 0 4.7 4.7 0 0 1 9.4 0ZM1004.8 193.7a4.8 4.8 0 0 1-5.7 4.7 4.7 4.7 0 1 1 5.6-4.7ZM1017.3 193.7a4.7 4.7 0 0 1-8 3.3 4.7 4.7 0 0 1 .7-7.2 4.7 4.7 0 0 1 7.3 3.9ZM85 206.3a4.7 4.7 0 1 1-9.4 0 4.7 4.7 0 0 1 9.4 0ZM97.7 206.3a4.7 4.7 0 1 1-9.5 0 4.7 4.7 0 0 1 9.5 0ZM110.3 206.3a4.7 4.7 0 1 1-9.5 0 4.7 4.7 0 0 1 9.5 0ZM122.9 206.3a4.7 4.7 0 1 1-9.5 0 4.7 4.7 0 0 1 9.5 0ZM135.5 206.3a4.7 4.7 0 1 1-9.5 0 4.7 4.7 0 0 1 9.5 0ZM148 206.3a4.7 4.7 0 1 1-9.4 0 4.7 4.7 0 0 1 9.5 0ZM160.7 206.3a4.7 4.7 0 1 1-9.5 0 4.7 4.7 0 0 1 9.5 0ZM173.2 206.3a4.7 4.7 0 1 1-9.4 0 4.7 4.7 0 0 1 9.4 0ZM185.9 206.3a4.7 4.7 0 1 1-9.5 0 4.7 4.7 0 0 1 9.5 0ZM198.5 206.3a4.7 4.7 0 1 1-9.5 0 4.7 4.7 0 0 1 9.5 0ZM211 206.3a4.7 4.7 0 1 1-9.4 0 4.7 4.7 0 0 1 9.4 0ZM488.2 206.3a4.7 4.7 0 1 1-9.4 0 4.7 4.7 0 0 1 9.4 0ZM500.8 206.3a4.7 4.7 0 1 1-9.5 0 4.7 4.7 0 0 1 9.5 0ZM513.4 206.3a4.7 4.7 0 1 1-9.4 0 4.7 4.7 0 0 1 9.4 0ZM526 206.3a4.7 4.7 0 1 1-9.4 0 4.7 4.7 0 0 1 9.4 0ZM538.6 206.3a4.7 4.7 0 1 1-9.5 0 4.7 4.7 0 0 1 9.5 0ZM551.2 206.3a4.7 4.7 0 1 1-9.4 0 4.7 4.7 0 0 1 9.4 0ZM563.8 206.3a4.7 4.7 0 1 1-9.5 0 4.7 4.7 0 0 1 9.5 0ZM576.4 206.3a4.7 4.7 0 1 1-9.4 0 4.7 4.7 0 0 1 9.4 0ZM589 206.3a4.7 4.7 0 1 1-9.4 0 4.7 4.7 0 0 1 9.4 0ZM601.6 206.3a4.7 4.7 0 1 1-9.5 0 4.7 4.7 0 0 1 9.5 0ZM614.2 206.3a4.7 4.7 0 1 1-9.4 0 4.7 4.7 0 0 1 9.4 0ZM626.8 206.3a4.7 4.7 0 1 1-9.5 0 4.7 4.7 0 0 1 9.5 0ZM639.3 206.3a4.7 4.7 0 1 1-9.4 0 4.7 4.7 0 0 1 9.4 0ZM652 206.3a4.7 4.7 0 1 1-9.4 0 4.7 4.7 0 0 1 9.4 0ZM664.6 206.3a4.7 4.7 0 1 1-9.5 0 4.7 4.7 0 0 1 9.5 0ZM677.2 206.3a4.7 4.7 0 1 1-9.4 0 4.7 4.7 0 0 1 9.4 0ZM689.8 206.3a4.7 4.7 0 1 1-9.5 0 4.7 4.7 0 0 1 9.5 0ZM702.4 206.3a4.7 4.7 0 1 1-9.5 0 4.7 4.7 0 0 1 9.5 0ZM715 206.3a4.7 4.7 0 1 1-9.5 0 4.7 4.7 0 0 1 9.5 0ZM727.6 206.3a4.7 4.7 0 1 1-9.5 0 4.7 4.7 0 0 1 9.5 0ZM740.2 206.3a4.7 4.7 0 1 1-9.5 0 4.7 4.7 0 0 1 9.5 0ZM752.8 206.3a4.7 4.7 0 1 1-9.5 0 4.7 4.7 0 0 1 9.5 0ZM765.4 206.3a4.7 4.7 0 1 1-9.5 0 4.7 4.7 0 0 1 9.5 0ZM778 206.3a4.7 4.7 0 1 1-9.5 0 4.7 4.7 0 0 1 9.5 0ZM790.6 206.3a4.7 4.7 0 1 1-9.5 0 4.7 4.7 0 0 1 9.5 0ZM803.2 206.3a4.7 4.7 0 1 1-9.5 0 4.7 4.7 0 0 1 9.5 0ZM815.8 206.3a4.7 4.7 0 1 1-9.5 0 4.7 4.7 0 0 1 9.5 0ZM828.4 206.3a4.7 4.7 0 1 1-9.5 0 4.7 4.7 0 0 1 9.5 0ZM841 206.3a4.7 4.7 0 1 1-9.5 0 4.7 4.7 0 0 1 9.5 0ZM853.6 206.3a4.7 4.7 0 1 1-9.5 0 4.7 4.7 0 0 1 9.5 0ZM866.2 206.3a4.7 4.7 0 1 1-9.5 0 4.7 4.7 0 0 1 9.5 0ZM878.8 206.3a4.7 4.7 0 1 1-9.5 0 4.7 4.7 0 0 1 9.5 0ZM891.5 206.3a4.7 4.7 0 1 1-9.5 0 4.7 4.7 0 0 1 9.5 0ZM904 206.3a4.7 4.7 0 1 1-9.5 0 4.7 4.7 0 0 1 9.5 0ZM916.4 206.3a4.7 4.7 0 1 1-9.4 0 4.7 4.7 0 0 1 9.4 0ZM929.1 206.3a4.7 4.7 0 1 1-9.4 0 4.7 4.7 0 0 1 9.4 0ZM941.8 206.3a4.7 4.7 0 1 1-9.5 0 4.7 4.7 0 0 1 9.5 0ZM954.3 206.3a4.7 4.7 0 1 1-9.4 0 4.7 4.7 0 0 1 9.4 0ZM967 206.3a4.7 4.7 0 1 1-9.5 0 4.7 4.7 0 0 1 9.4 0ZM979.5 206.3a4.7 4.7 0 1 1-9.4 0 4.7 4.7 0 0 1 9.4 0ZM85 218.9a4.7 4.7 0 1 1-9.4 0 4.7 4.7 0 0 1 9.4 0ZM97.7 218.9a4.7 4.7 0 1 1-9.5 0 4.7 4.7 0 0 1 9.5 0ZM110.3 218.9a4.7 4.7 0 1 1-9.5 0 4.7 4.7 0 0 1 9.5 0ZM122.9 218.9a4.7 4.7 0 1 1-9.5 0 4.7 4.7 0 0 1 9.5 0ZM135.5 218.9a4.7 4.7 0 1 1-9.5 0 4.7 4.7 0 0 1 9.5 0ZM148 218.9a4.7 4.7 0 1 1-9.4 0 4.7 4.7 0 0 1 9.5 0ZM211 218.9a4.7 4.7 0 1 1-9.4 0 4.7 4.7 0 0 1 9.4 0ZM475.6 218.9a4.7 4.7 0 1 1-9.5 0 4.7 4.7 0 0 1 9.5 0ZM488.2 218.9a4.7 4.7 0 1 1-9.4 0 4.7 4.7 0 0 1 9.4 0ZM500.8 218.9a4.7 4.7 0 1 1-9.5 0 4.7 4.7 0 0 1 9.5 0ZM513.4 218.9a4.7 4.7 0 1 1-9.4 0 4.7 4.7 0 0 1 9.4 0ZM526 218.9a4.7 4.7 0 1 1-9.4 0 4.7 4.7 0 0 1 9.4 0ZM538.6 218.9a4.7 4.7 0 1 1-9.5 0 4.7 4.7 0 0 1 9.5 0ZM551.2 218.9a4.7 4.7 0 1 1-9.4 0 4.7 4.7 0 0 1 9.4 0ZM563.8 218.9a4.7 4.7 0 1 1-9.5 0 4.7 4.7 0 0 1 9.5 0ZM576.4 218.9a4.7 4.7 0 1 1-9.4 0 4.7 4.7 0 0 1 9.4 0ZM589 218.9a4.7 4.7 0 1 1-9.4 0 4.7 4.7 0 0 1 9.4 0ZM601.6 218.9a4.7 4.7 0 1 1-9.5 0 4.7 4.7 0 0 1 9.5 0ZM614.2 218.9a4.7 4.7 0 1 1-9.4 0 4.7 4.7 0 0 1 9.4 0ZM626.8 218.9a4.7 4.7 0 1 1-9.5 0 4.7 4.7 0 0 1 9.5 0ZM639.3 218.9a4.7 4.7 0 1 1-9.4 0 4.7 4.7 0 0 1 9.4 0ZM664.6 218.9a4.7 4.7 0 1 1-9.5 0 4.7 4.7 0 0 1 9.5 0ZM677.2 218.9a4.7 4.7 0 1 1-9.4 0 4.7 4.7 0 0 1 9.4 0ZM689.8 218.9a4.7 4.7 0 1 1-9.5 0 4.7 4.7 0 0 1 9.5 0ZM702.4 218.9a4.7 4.7 0 1 1-9.5 0 4.7 4.7 0 0 1 9.5 0ZM740.2 218.9a4.7 4.7 0 1 1-9.5 0 4.7 4.7 0 0 1 9.5 0ZM752.8 218.9a4.7 4.7 0 1 1-9.5 0 4.7 4.7 0 0 1 9.5 0ZM765.4 218.9a4.7 4.7 0 1 1-9.5 0 4.7 4.7 0 0 1 9.5 0ZM778 218.9a4.7 4.7 0 1 1-9.5 0 4.7 4.7 0 0 1 9.5 0ZM790.6 218.9a4.7 4.7 0 1 1-9.5 0 4.7 4.7 0 0 1 9.5 0ZM803.2 218.9a4.7 4.7 0 1 1-9.5 0 4.7 4.7 0 0 1 9.5 0ZM815.8 218.9a4.7 4.7 0 1 1-9.5 0 4.7 4.7 0 0 1 9.5 0ZM828.4 218.9a4.7 4.7 0 1 1-9.5 0 4.7 4.7 0 0 1 9.5 0ZM841 218.9a4.7 4.7 0 1 1-9.5 0 4.7 4.7 0 0 1 9.5 0ZM853.6 218.9a4.7 4.7 0 1 1-9.5 0 4.7 4.7 0 0 1 9.5 0ZM866.2 218.9a4.7 4.7 0 1 1-9.5 0 4.7 4.7 0 0 1 9.5 0ZM878.8 218.9a4.7 4.7 0 1 1-9.5 0 4.7 4.7 0 0 1 9.5 0ZM891.5 218.9a4.7 4.7 0 1 1-9.5 0 4.7 4.7 0 0 1 9.5 0ZM904 218.9a4.7 4.7 0 1 1-9.5 0 4.7 4.7 0 0 1 9.5 0ZM916.4 218.9a4.7 4.7 0 1 1-9.4 0 4.7 4.7 0 0 1 9.4 0ZM929.1 218.9a4.7 4.7 0 1 1-9.4 0 4.7 4.7 0 0 1 9.4 0ZM941.8 218.9a4.7 4.7 0 1 1-9.5 0 4.7 4.7 0 0 1 9.5 0ZM954.3 218.9a4.7 4.7 0 1 1-9.4 0 4.7 4.7 0 0 1 9.4 0ZM967 218.9a4.7 4.7 0 1 1-9.5 0 4.7 4.7 0 0 1 9.4 0ZM979.5 218.9a4.7 4.7 0 1 1-9.4 0 4.7 4.7 0 0 1 9.4 0ZM97.7 231.5a4.7 4.7 0 1 1-9.5 0 4.7 4.7 0 0 1 9.5 0ZM110.3 231.5a4.7 4.7 0 1 1-9.5 0 4.7 4.7 0 0 1 9.5 0ZM122.9 231.5a4.7 4.7 0 1 1-9.5 0 4.7 4.7 0 0 1 9.5 0ZM135.5 231.5a4.7 4.7 0 1 1-9.5 0 4.7 4.7 0 0 1 9.5 0ZM148 231.5a4.7 4.7 0 1 1-9.4 0 4.7 4.7 0 0 1 9.5 0ZM211 231.5a4.7 4.7 0 1 1-9.4 0 4.7 4.7 0 0 1 9.4 0ZM463 231.5a4.7 4.7 0 1 1-9.4 0 4.7 4.7 0 0 1 9.4 0ZM475.6 231.5a4.7 4.7 0 1 1-9.5 0 4.7 4.7 0 0 1 9.5 0ZM488.2 231.5a4.7 4.7 0 1 1-9.4 0 4.7 4.7 0 0 1 9.4 0ZM500.8 231.5a4.7 4.7 0 1 1-9.5 0 4.7 4.7 0 0 1 9.5 0ZM513.4 231.5a4.7 4.7 0 0 1-8 3.3 4.7 4.7 0 1 1 8-3.3ZM526 231.5a4.7 4.7 0 1 1-9.4 0 4.7 4.7 0 0 1 9.4 0ZM538.6 231.5a4.7 4.7 0 1 1-9.5 0 4.7 4.7 0 0 1 9.5 0ZM551.2 231.5a4.7 4.7 0 1 1-9.4 0 4.7 4.7 0 0 1 9.4 0ZM563.8 231.5a4.7 4.7 0 1 1-9.5 0 4.7 4.7 0 0 1 9.5 0ZM576.4 231.5a4.7 4.7 0 1 1-9.4 0 4.7 4.7 0 0 1 9.4 0ZM589 231.5a4.7 4.7 0 1 1-9.4 0 4.7 4.7 0 0 1 9.4 0ZM601.6 231.5a4.7 4.7 0 1 1-9.5 0 4.7 4.7 0 0 1 9.5 0ZM614.2 231.5a4.7 4.7 0 0 1-8 3.3 4.7 4.7 0 1 1 8-3.3ZM626.8 231.5a4.7 4.7 0 1 1-9.5 0 4.7 4.7 0 0 1 9.5 0ZM639.3 231.5a4.7 4.7 0 1 1-9.4 0 4.7 4.7 0 0 1 9.4 0ZM664.6 231.5a4.7 4.7 0 1 1-9.5 0 4.7 4.7 0 0 1 9.5 0ZM677.2 231.5a4.7 4.7 0 1 1-9.4 0 4.7 4.7 0 0 1 9.4 0ZM689.8 231.5a4.7 4.7 0 1 1-9.5 0 4.7 4.7 0 0 1 9.5 0ZM702.4 231.5a4.7 4.7 0 1 1-9.5 0 4.7 4.7 0 0 1 9.5 0ZM778 231.5a4.7 4.7 0 1 1-9.5 0 4.7 4.7 0 0 1 9.5 0ZM790.6 231.5a4.7 4.7 0 1 1-9.5 0 4.7 4.7 0 0 1 9.5 0ZM803.2 231.5a4.7 4.7 0 1 1-9.5 0 4.7 4.7 0 0 1 9.5 0ZM828.4 231.5a4.7 4.7 0 0 1-8.1 3.3 4.7 4.7 0 1 1 8-3.3ZM841 231.5a4.7 4.7 0 1 1-9.5 0 4.7 4.7 0 0 1 9.5 0ZM853.6 231.5a4.7 4.7 0 1 1-9.5 0 4.7 4.7 0 0 1 9.5 0ZM866.2 231.5a4.7 4.7 0 1 1-9.5 0 4.7 4.7 0 0 1 9.5 0ZM878.8 231.5a4.7 4.7 0 1 1-9.5 0 4.7 4.7 0 0 1 9.5 0ZM891.5 231.5a4.7 4.7 0 1 1-9.5 0 4.7 4.7 0 0 1 9.5 0ZM904 231.5a4.7 4.7 0 1 1-9.5 0 4.7 4.7 0 0 1 9.5 0ZM916.4 231.5a4.7 4.7 0 1 1-9.4 0 4.7 4.7 0 0 1 9.4 0ZM929.1 231.5a4.7 4.7 0 1 1-9.4 0 4.7 4.7 0 0 1 9.4 0ZM941.8 231.5a4.7 4.7 0 1 1-9.5 0 4.7 4.7 0 0 1 9.5 0ZM954.3 231.5a4.7 4.7 0 1 1-9.4 0 4.7 4.7 0 0 1 9.4 0ZM967 231.5a4.7 4.7 0 1 1-9.5 0 4.7 4.7 0 0 1 9.4 0ZM97.7 244a4.7 4.7 0 1 1-9.5.1 4.7 4.7 0 0 1 9.5 0ZM110.3 244a4.7 4.7 0 1 1-9.5 0 4.7 4.7 0 0 1 9.5 0ZM118.1 248.8a4.7 4.7 0 1 0 0-9.4 4.7 4.7 0 0 0 0 9.4ZM135.5 244a4.7 4.7 0 1 1-9.5.1 4.7 4.7 0 0 1 9.5 0ZM198.5 244a4.7 4.7 0 1 1-9.5.1 4.7 4.7 0 0 1 9.5 0ZM206.3 248.8a4.7 4.7 0 1 0 0-9.4 4.7 4.7 0 0 0 0 9.4ZM458.3 248.8a4.7 4.7 0 1 0 0-9.4 4.7 4.7 0 0 0 0 9.4ZM475.6 244a4.7 4.7 0 1 1-9.5.1 4.7 4.7 0 0 1 9.5 0ZM483.5 248.8a4.7 4.7 0 1 0 0-9.4 4.7 4.7 0 0 0 0 9.4ZM500.8 244a4.7 4.7 0 1 1-9.5.1 4.7 4.7 0 0 1 9.5 0ZM513.4 244a4.7 4.7 0 1 1-9.4 0 4.7 4.7 0 0 1 9.4 0ZM521.3 248.8a4.7 4.7 0 1 0 0-9.4 4.7 4.7 0 0 0 0 9.4ZM538.6 244a4.7 4.7 0 1 1-9.5.1 4.7 4.7 0 0 1 9.5 0ZM546.5 248.8a4.7 4.7 0 1 0 0-9.4 4.7 4.7 0 0 0 0 9.4ZM563.8 244a4.7 4.7 0 1 1-9.5.1 4.7 4.7 0 0 1 9.5 0ZM576.4 244a4.7 4.7 0 1 1-9.4 0 4.7 4.7 0 0 1 9.4 0ZM584.3 248.8a4.7 4.7 0 1 0 0-9.4 4.7 4.7 0 0 0 0 9.4ZM601.6 244a4.7 4.7 0 1 1-9.5.1 4.7 4.7 0 0 1 9.5 0ZM609.5 248.8a4.7 4.7 0 1 0 0-9.4 4.7 4.7 0 0 0 0 9.4ZM626.8 244a4.7 4.7 0 1 1-9.5.1 4.7 4.7 0 0 1 9.5 0ZM639.3 244a4.7 4.7 0 1 1-9.4 0 4.7 4.7 0 0 1 9.4 0ZM647.3 248.8a4.7 4.7 0 1 0 0-9.4 4.7 4.7 0 0 0 0 9.4ZM672.5 248.8a4.7 4.7 0 1 0 0-9.4 4.7 4.7 0 0 0 0 9.4ZM689.8 244a4.7 4.7 0 1 1-9.5.1 4.7 4.7 0 0 1 9.5 0ZM702.4 244a4.7 4.7 0 1 1-9.5 0 4.7 4.7 0 0 1 9.5 0ZM715 244a4.7 4.7 0 1 1-9.5.1 4.7 4.7 0 0 1 9.5 0ZM727.6 244a4.7 4.7 0 1 1-9.5.1 4.7 4.7 0 0 1 9.5 0ZM735.5 248.8a4.7 4.7 0 1 0 0-9.4 4.7 4.7 0 0 0 0 9.4ZM790.6 244a4.7 4.7 0 1 1-9.5.1 4.7 4.7 0 0 1 9.5 0ZM798.4 248.8a4.7 4.7 0 1 0 0-9.4 4.7 4.7 0 0 0 0 9.4ZM815.8 244a4.7 4.7 0 1 1-9.5.1 4.7 4.7 0 0 1 9.5 0ZM823.6 248.8a4.7 4.7 0 1 0 0-9.4 4.7 4.7 0 0 0 0 9.4ZM841 244a4.7 4.7 0 1 1-9.5.1 4.7 4.7 0 0 1 9.5 0ZM853.6 244a4.7 4.7 0 1 1-9.5.1 4.7 4.7 0 0 1 9.5 0ZM861.4 248.8a4.7 4.7 0 1 0 0-9.4 4.7 4.7 0 0 0 0 9.4ZM878.8 244a4.7 4.7 0 1 1-9.5.1 4.7 4.7 0 0 1 9.5 0ZM886.6 248.8a4.7 4.7 0 1 0 0-9.4 4.7 4.7 0 0 0 0 9.4ZM904 244a4.7 4.7 0 1 1-9.5.1 4.7 4.7 0 0 1 9.5 0ZM916.4 244a4.7 4.7 0 1 1-9.4 0 4.7 4.7 0 0 1 9.4 0ZM924.4 248.8a4.7 4.7 0 1 0 0-9.4 4.7 4.7 0 0 0 0 9.4ZM941.8 244a4.7 4.7 0 1 1-9.5.1 4.7 4.7 0 0 1 9.5 0ZM949.6 248.8a4.7 4.7 0 1 0 0-9.4 4.7 4.7 0 0 0 0 9.4ZM110.3 256.7a4.7 4.7 0 1 1-9.5 0 4.7 4.7 0 0 1 9.5 0ZM122.9 256.7a4.7 4.7 0 1 1-9.5 0 4.7 4.7 0 0 1 9.5 0ZM135.5 256.7a4.7 4.7 0 1 1-9.5 0 4.7 4.7 0 0 1 9.5 0ZM148 256.7a4.7 4.7 0 1 1-9.4 0 4.7 4.7 0 0 1 9.5 0ZM173.2 256.7a4.7 4.7 0 1 1-9.4 0 4.7 4.7 0 0 1 9.4 0ZM223.7 256.7a4.7 4.7 0 1 1-9.5 0 4.7 4.7 0 0 1 9.5 0ZM236.2 256.7a4.7 4.7 0 1 1-9.4 0 4.7 4.7 0 0 1 9.4 0ZM248.8 256.7a4.7 4.7 0 1 1-9.4 0 4.7 4.7 0 0 1 9.4 0ZM463 256.7a4.7 4.7 0 1 1-9.4 0 4.7 4.7 0 0 1 9.4 0ZM475.6 256.7a4.7 4.7 0 1 1-9.5 0 4.7 4.7 0 0 1 9.5 0ZM488.2 256.7a4.7 4.7 0 1 1-9.4 0 4.7 4.7 0 0 1 9.4 0ZM500.8 256.7a4.7 4.7 0 1 1-9.5 0 4.7 4.7 0 0 1 9.5 0ZM513.4 256.7a4.7 4.7 0 1 1-9.4 0 4.7 4.7 0 0 1 9.4 0ZM526 256.7a4.7 4.7 0 1 1-9.4 0 4.7 4.7 0 0 1 9.4 0ZM538.6 256.7a4.7 4.7 0 1 1-9.5 0 4.7 4.7 0 0 1 9.5 0ZM551.2 256.7a4.7 4.7 0 1 1-9.4 0 4.7 4.7 0 0 1 9.4 0ZM563.8 256.7a4.7 4.7 0 1 1-9.5 0 4.7 4.7 0 0 1 9.5 0ZM576.4 256.7a4.7 4.7 0 1 1-9.4 0 4.7 4.7 0 0 1 9.4 0ZM589 256.7a4.7 4.7 0 1 1-9.4 0 4.7 4.7 0 0 1 9.4 0ZM601.6 256.7a4.7 4.7 0 1 1-9.5 0 4.7 4.7 0 0 1 9.5 0ZM614.2 256.7a4.7 4.7 0 1 1-9.4 0 4.7 4.7 0 0 1 9.4 0ZM626.8 256.7a4.7 4.7 0 1 1-9.4 0 4.7 4.7 0 0 1 9.4 0ZM639.3 256.7a4.7 4.7 0 1 1-9.4 0 4.7 4.7 0 0 1 9.4 0ZM652 256.7a4.7 4.7 0 1 1-9.4 0 4.7 4.7 0 0 1 9.4 0ZM677.2 256.7a4.7 4.7 0 1 1-9.4 0 4.7 4.7 0 0 1 9.4 0ZM689.8 256.7a4.7 4.7 0 1 1-9.5 0 4.7 4.7 0 0 1 9.5 0ZM702.4 256.7a4.7 4.7 0 1 1-9.5 0 4.7 4.7 0 0 1 9.5 0ZM715 256.7a4.7 4.7 0 1 1-9.5 0 4.7 4.7 0 0 1 9.5 0ZM727.6 256.7a4.7 4.7 0 1 1-9.5 0 4.7 4.7 0 0 1 9.5 0ZM740.2 256.7a4.7 4.7 0 1 1-9.5 0 4.7 4.7 0 0 1 9.5 0ZM803.2 256.7a4.7 4.7 0 1 1-9.5 0 4.7 4.7 0 0 1 9.5 0ZM815.8 256.7a4.7 4.7 0 1 1-9.5 0 4.7 4.7 0 0 1 9.5 0ZM828.4 256.7a4.7 4.7 0 1 1-9.5 0 4.7 4.7 0 0 1 9.5 0ZM841 256.7a4.7 4.7 0 1 1-9.5 0 4.7 4.7 0 0 1 9.5 0ZM878.8 256.7a4.7 4.7 0 1 1-9.5 0 4.7 4.7 0 0 1 9.5 0ZM891.5 256.7a4.7 4.7 0 1 1-9.5 0 4.7 4.7 0 0 1 9.5 0ZM904 256.7a4.7 4.7 0 1 1-9.5 0 4.7 4.7 0 0 1 9.5 0ZM916.4 256.7a4.7 4.7 0 1 1-9.4 0 4.7 4.7 0 0 1 9.4 0ZM929.1 256.7a4.7 4.7 0 1 1-9.4 0 4.7 4.7 0 0 1 9.4 0ZM941.8 256.7a4.7 4.7 0 1 1-9.5 0 4.7 4.7 0 0 1 9.5 0ZM118.1 274a4.7 4.7 0 1 0 0-9.4 4.7 4.7 0 0 0 0 9.4ZM135.5 269.3a4.7 4.7 0 1 1-9.5 0 4.7 4.7 0 0 1 9.5 0ZM143.3 274a4.7 4.7 0 1 0 0-9.4 4.7 4.7 0 0 0 0 9.4ZM160.7 269.3a4.7 4.7 0 1 1-9.5 0 4.7 4.7 0 0 1 9.5 0ZM173.2 269.3a4.7 4.7 0 1 1-9.4 0 4.7 4.7 0 0 1 9.4 0ZM458.3 274a4.7 4.7 0 1 0 0-9.4 4.7 4.7 0 0 0 0 9.4ZM475.6 269.3a4.7 4.7 0 1 1-9.5 0 4.7 4.7 0 0 1 9.5 0ZM483.5 274a4.7 4.7 0 1 0 0-9.4 4.7 4.7 0 0 0 0 9.4ZM500.8 269.3a4.7 4.7 0 1 1-9.5 0 4.7 4.7 0 0 1 9.5 0ZM513.4 269.3a4.7 4.7 0 1 1-9.4 0 4.7 4.7 0 0 1 9.4 0ZM521.3 274a4.7 4.7 0 1 0 0-9.4 4.7 4.7 0 0 0 0 9.4ZM538.6 269.3a4.7 4.7 0 1 1-9.5 0 4.7 4.7 0 0 1 9.5 0ZM546.5 274a4.7 4.7 0 1 0 0-9.4 4.7 4.7 0 0 0 0 9.4ZM563.8 269.3a4.7 4.7 0 1 1-9.5 0 4.7 4.7 0 0 1 9.5 0ZM576.4 269.3a4.7 4.7 0 1 1-9.4 0 4.7 4.7 0 0 1 9.4 0ZM584.3 274a4.7 4.7 0 1 0 0-9.4 4.7 4.7 0 0 0 0 9.4ZM601.6 269.3a4.7 4.7 0 1 1-9.5 0 4.7 4.7 0 0 1 9.5 0ZM609.5 274a4.7 4.7 0 1 0 0-9.4 4.7 4.7 0 0 0 0 9.4ZM626.8 269.3a4.7 4.7 0 1 1-9.5 0 4.7 4.7 0 0 1 9.5 0ZM639.3 269.3a4.7 4.7 0 1 1-9.4 0 4.7 4.7 0 0 1 9.4 0ZM647.3 274a4.7 4.7 0 1 0 0-9.4 4.7 4.7 0 0 0 0 9.4ZM664.6 269.3a4.7 4.7 0 1 1-9.5 0 4.7 4.7 0 0 1 9.5 0ZM689.8 269.3a4.7 4.7 0 1 1-9.5 0 4.7 4.7 0 0 1 9.5 0ZM702.4 269.3a4.7 4.7 0 1 1-9.5 0 4.7 4.7 0 0 1 9.5 0ZM715 269.3a4.7 4.7 0 1 1-9.5 0 4.7 4.7 0 0 1 9.5 0ZM727.6 269.3a4.7 4.7 0 1 1-9.5 0 4.7 4.7 0 0 1 9.5 0ZM798.4 274a4.7 4.7 0 1 0 0-9.4 4.7 4.7 0 0 0 0 9.4ZM815.8 269.3a4.7 4.7 0 1 1-9.5 0 4.7 4.7 0 0 1 9.5 0ZM823.6 274a4.7 4.7 0 1 0 0-9.4 4.7 4.7 0 0 0 0 9.4ZM886.6 274a4.7 4.7 0 1 0 0-9.4 4.7 4.7 0 0 0 0 9.4ZM904 269.3a4.7 4.7 0 1 1-9.5 0 4.7 4.7 0 0 1 9.5 0ZM916.4 269.3a4.7 4.7 0 1 1-9.4 0 4.7 4.7 0 0 1 9.4 0ZM924.4 274a4.7 4.7 0 1 0 0-9.4 4.7 4.7 0 0 0 0 9.4ZM987.4 274a4.7 4.7 0 1 0 0-9.4 4.7 4.7 0 0 0 0 9.4ZM160.7 281.9a4.7 4.7 0 1 1-9.5 0 4.7 4.7 0 0 1 9.5 0ZM173.2 281.9a4.7 4.7 0 1 1-9.4 0 4.7 4.7 0 0 1 9.4 0ZM185.9 281.9a4.7 4.7 0 1 1-9.5 0 4.7 4.7 0 0 1 9.5 0ZM463 281.9a4.7 4.7 0 1 1-9.4 0 4.7 4.7 0 0 1 9.4 0ZM475.6 281.9a4.7 4.7 0 1 1-9.5 0 4.7 4.7 0 0 1 9.5 0ZM488.2 281.9a4.7 4.7 0 1 1-9.4 0 4.7 4.7 0 0 1 9.4 0ZM500.8 281.9a4.7 4.7 0 1 1-9.5 0 4.7 4.7 0 0 1 9.5 0ZM513.4 281.9a4.7 4.7 0 1 1-9.4 0 4.7 4.7 0 0 1 9.4 0ZM526 281.9a4.7 4.7 0 1 1-9.4 0 4.7 4.7 0 0 1 9.4 0ZM538.6 281.9a4.7 4.7 0 1 1-9.5 0 4.7 4.7 0 0 1 9.5 0ZM551.2 281.9a4.7 4.7 0 1 1-9.4 0 4.7 4.7 0 0 1 9.4 0ZM563.8 281.9a4.7 4.7 0 1 1-9.5 0 4.7 4.7 0 0 1 9.5 0ZM576.4 281.9a4.7 4.7 0 1 1-9.4 0 4.7 4.7 0 0 1 9.4 0ZM589 281.9a4.7 4.7 0 1 1-9.4 0 4.7 4.7 0 0 1 9.4 0ZM601.6 281.9a4.7 4.7 0 1 1-9.5 0 4.7 4.7 0 0 1 9.5 0ZM614.2 281.9a4.7 4.7 0 1 1-9.4 0 4.7 4.7 0 0 1 9.4 0ZM626.8 281.9a4.7 4.7 0 1 1-9.5 0 4.7 4.7 0 0 1 9.5 0ZM639.3 281.9a4.7 4.7 0 1 1-9.4 0 4.7 4.7 0 0 1 9.4 0ZM652 281.9a4.7 4.7 0 1 1-9.4 0 4.7 4.7 0 0 1 9.4 0ZM664.6 281.9a4.7 4.7 0 1 1-9.5 0 4.7 4.7 0 0 1 9.5 0ZM677.2 281.9a4.7 4.7 0 1 1-9.4 0 4.7 4.7 0 0 1 9.4 0ZM689.8 281.9a4.7 4.7 0 1 1-9.5 0 4.7 4.7 0 0 1 9.5 0ZM702.4 281.9a4.7 4.7 0 1 1-9.5 0 4.7 4.7 0 0 1 9.5 0ZM815.8 281.9a4.7 4.7 0 1 1-9.5 0 4.7 4.7 0 0 1 9.5 0ZM828.4 281.9a4.7 4.7 0 1 1-9.5 0 4.7 4.7 0 0 1 9.5 0ZM904 281.9a4.7 4.7 0 1 1-9.5 0 4.7 4.7 0 0 1 9.5 0ZM916.4 281.9a4.7 4.7 0 1 1-9.4 0 4.7 4.7 0 0 1 9.4 0ZM929.1 281.9a4.7 4.7 0 1 1-9.4 0 4.7 4.7 0 0 1 9.4 0ZM941.8 281.9a4.7 4.7 0 1 1-9.5 0 4.7 4.7 0 0 1 9.5 0ZM992.1 281.9a4.7 4.7 0 1 1-9.4 0 4.7 4.7 0 0 1 9.4 0ZM181.1 299.2a4.7 4.7 0 1 0 0-9.4 4.7 4.7 0 0 0 0 9.4ZM236.2 294.5a4.7 4.7 0 1 1-9.4 0 4.7 4.7 0 0 1 9.4 0ZM458.3 299.2a4.7 4.7 0 1 0 0-9.4 4.7 4.7 0 0 0 0 9.4ZM475.6 294.5a4.7 4.7 0 1 1-9.5 0 4.7 4.7 0 0 1 9.5 0ZM483.5 299.2a4.7 4.7 0 1 0 0-9.4 4.7 4.7 0 0 0 0 9.4ZM500.8 294.5a4.7 4.7 0 1 1-9.5 0 4.7 4.7 0 0 1 9.5 0ZM513.4 294.5a4.7 4.7 0 1 1-9.4 0 4.7 4.7 0 0 1 9.4 0ZM521.3 299.2a4.7 4.7 0 1 0 0-9.4 4.7 4.7 0 0 0 0 9.4ZM538.6 294.5a4.7 4.7 0 1 1-9.5 0 4.7 4.7 0 0 1 9.5 0ZM546.5 299.2a4.7 4.7 0 1 0 0-9.4 4.7 4.7 0 0 0 0 9.4ZM563.8 294.5a4.7 4.7 0 1 1-9.5 0 4.7 4.7 0 0 1 9.5 0ZM576.4 294.5a4.7 4.7 0 1 1-9.4 0 4.7 4.7 0 0 1 9.4 0ZM584.3 299.2a4.7 4.7 0 1 0 0-9.4 4.7 4.7 0 0 0 0 9.4ZM601.6 294.5a4.7 4.7 0 1 1-9.5 0 4.7 4.7 0 0 1 9.5 0ZM609.5 299.2a4.7 4.7 0 1 0 0-9.4 4.7 4.7 0 0 0 0 9.4ZM626.8 294.5a4.7 4.7 0 1 1-9.5 0 4.7 4.7 0 0 1 9.5 0ZM639.3 294.5a4.7 4.7 0 1 1-9.4 0 4.7 4.7 0 0 1 9.4 0ZM647.3 299.2a4.7 4.7 0 1 0 0-9.4 4.7 4.7 0 0 0 0 9.4ZM664.6 294.5a4.7 4.7 0 1 1-9.5 0 4.7 4.7 0 0 1 9.5 0ZM672.5 299.2a4.7 4.7 0 1 0 0-9.4 4.7 4.7 0 0 0 0 9.4ZM689.8 294.5a4.7 4.7 0 1 1-9.5 0 4.7 4.7 0 0 1 9.5 0ZM702.4 294.5a4.7 4.7 0 1 1-9.5 0 4.7 4.7 0 0 1 9.5 0ZM715 294.5a4.7 4.7 0 1 1-9.5 0 4.7 4.7 0 0 1 9.5 0ZM815.8 294.5a4.7 4.7 0 1 1-9.5 0 4.7 4.7 0 0 1 9.5 0ZM823.6 299.2a4.7 4.7 0 1 0 0-9.4 4.7 4.7 0 0 0 0 9.4ZM904 294.5a4.7 4.7 0 1 1-9.5 0 4.7 4.7 0 0 1 9.5 0ZM924.4 299.2a4.7 4.7 0 1 0 0-9.4 4.7 4.7 0 0 0 0 9.4ZM941.8 294.5a4.7 4.7 0 1 1-9.5 0 4.7 4.7 0 0 1 9.5 0ZM987.4 299.2a4.7 4.7 0 1 0 0-9.4 4.7 4.7 0 0 0 0 9.4ZM1004.8 294.5a4.8 4.8 0 1 1-9.6 0 4.8 4.8 0 0 1 9.5 0ZM198.5 307a4.7 4.7 0 1 1-9.5.1 4.7 4.7 0 0 1 9.5 0ZM211 307a4.7 4.7 0 1 1-9.4 0 4.7 4.7 0 0 1 9.4 0ZM223.7 307a4.7 4.7 0 1 1-9.5.1 4.7 4.7 0 0 1 9.5 0ZM236.2 307a4.7 4.7 0 1 1-9.4 0 4.7 4.7 0 0 1 9.4 0ZM248.8 307a4.7 4.7 0 1 1-9.4.1 4.7 4.7 0 0 1 9.4 0ZM261.4 307a4.7 4.7 0 1 1-9.4 0 4.7 4.7 0 0 1 9.4 0ZM274 307a4.7 4.7 0 1 1-9.4 0 4.7 4.7 0 0 1 9.4 0ZM475.6 307a4.7 4.7 0 1 1-9.5.1 4.7 4.7 0 0 1 9.5 0ZM488.2 307a4.7 4.7 0 1 1-9.4 0 4.7 4.7 0 0 1 9.4 0ZM500.8 307a4.7 4.7 0 1 1-9.5.1 4.7 4.7 0 0 1 9.5 0ZM513.4 307a4.7 4.7 0 1 1-9.4 0 4.7 4.7 0 0 1 9.4 0ZM526 307a4.7 4.7 0 1 1-9.4 0 4.7 4.7 0 0 1 9.4 0ZM538.6 307a4.7 4.7 0 1 1-9.5.1 4.7 4.7 0 0 1 9.5 0ZM551.2 307a4.7 4.7 0 1 1-9.4 0 4.7 4.7 0 0 1 9.4 0ZM563.8 307a4.7 4.7 0 1 1-9.5.1 4.7 4.7 0 0 1 9.5 0ZM576.4 307a4.7 4.7 0 1 1-9.4 0 4.7 4.7 0 0 1 9.4 0ZM589 307a4.7 4.7 0 1 1-9.4 0 4.7 4.7 0 0 1 9.4 0ZM601.6 307a4.7 4.7 0 1 1-9.5.1 4.7 4.7 0 0 1 9.5 0ZM614.2 307a4.7 4.7 0 1 1-9.4 0 4.7 4.7 0 0 1 9.4 0ZM626.8 307a4.7 4.7 0 1 1-9.5.1 4.7 4.7 0 0 1 9.5 0ZM639.3 307a4.7 4.7 0 1 1-9.4 0 4.7 4.7 0 0 1 9.4 0ZM652 307a4.7 4.7 0 1 1-9.4 0 4.7 4.7 0 0 1 9.4 0ZM664.6 307a4.7 4.7 0 1 1-9.5.1 4.7 4.7 0 0 1 9.5 0ZM677.2 307a4.7 4.7 0 1 1-9.4 0 4.7 4.7 0 0 1 9.4 0ZM689.8 307a4.7 4.7 0 1 1-9.5.1 4.7 4.7 0 0 1 9.5 0ZM702.4 307a4.7 4.7 0 1 1-9.5 0 4.7 4.7 0 0 1 9.5 0ZM715 307a4.7 4.7 0 1 1-9.5.1 4.7 4.7 0 0 1 9.5 0ZM815.8 307a4.7 4.7 0 1 1-9.5.1 4.7 4.7 0 0 1 9.5 0ZM828.4 307a4.7 4.7 0 1 1-9.5 0 4.7 4.7 0 0 1 9.5 0ZM904 307a4.7 4.7 0 1 1-9.5.1 4.7 4.7 0 0 1 9.5 0ZM979.5 307a4.7 4.7 0 1 1-9.4 0 4.7 4.7 0 0 1 9.4 0ZM1004.8 307a4.8 4.8 0 0 1-5.7 4.8 4.7 4.7 0 1 1 5.6-4.7ZM223.7 319.7a4.7 4.7 0 1 1-9.5 0 4.7 4.7 0 0 1 9.5 0ZM236.2 319.7a4.7 4.7 0 1 1-9.4 0 4.7 4.7 0 0 1 9.4 0ZM244.1 324.4a4.7 4.7 0 1 0 0-9.4 4.7 4.7 0 0 0 0 9.4ZM261.4 319.7a4.7 4.7 0 1 1-9.4 0 4.7 4.7 0 0 1 9.4 0ZM269.3 324.4a4.7 4.7 0 1 0 0-9.4 4.7 4.7 0 0 0 0 9.4ZM286.6 319.7a4.7 4.7 0 1 1-9.4 0 4.7 4.7 0 0 1 9.4 0ZM299.2 319.7a4.7 4.7 0 1 1-9.4 0 4.7 4.7 0 0 1 9.4 0ZM475.6 319.7a4.7 4.7 0 1 1-9.5 0 4.7 4.7 0 0 1 9.5 0ZM483.5 324.4a4.7 4.7 0 1 0 0-9.4 4.7 4.7 0 0 0 0 9.4ZM500.8 319.7a4.7 4.7 0 1 1-9.5 0 4.7 4.7 0 0 1 9.5 0ZM538.6 319.7a4.7 4.7 0 1 1-9.5 0 4.7 4.7 0 0 1 9.5 0ZM546.5 324.4a4.7 4.7 0 1 0 0-9.4 4.7 4.7 0 0 0 0 9.4ZM563.8 319.7a4.7 4.7 0 1 1-9.5 0 4.7 4.7 0 0 1 9.5 0ZM576.4 319.7a4.7 4.7 0 1 1-9.4 0 4.7 4.7 0 0 1 9.4 0ZM584.3 324.4a4.7 4.7 0 1 0 0-9.4 4.7 4.7 0 0 0 0 9.4ZM601.6 319.7a4.7 4.7 0 1 1-9.5 0 4.7 4.7 0 0 1 9.5 0ZM609.5 324.4a4.7 4.7 0 1 0 0-9.4 4.7 4.7 0 0 0 0 9.4ZM626.8 319.7a4.7 4.7 0 1 1-9.5 0 4.7 4.7 0 0 1 9.5 0ZM639.3 319.7a4.7 4.7 0 1 1-9.4 0 4.7 4.7 0 0 1 9.4 0ZM647.3 324.4a4.7 4.7 0 1 0 0-9.4 4.7 4.7 0 0 0 0 9.4ZM664.6 319.7a4.7 4.7 0 1 1-9.5 0 4.7 4.7 0 0 1 9.5 0ZM672.5 324.4a4.7 4.7 0 1 0 0-9.4 4.7 4.7 0 0 0 0 9.4ZM689.8 319.7a4.7 4.7 0 1 1-9.5 0 4.7 4.7 0 0 1 9.5 0ZM702.4 319.7a4.7 4.7 0 1 1-9.5 0 4.7 4.7 0 0 1 9.5 0ZM904 319.7a4.7 4.7 0 1 1-9.5 0 4.7 4.7 0 0 1 9.5 0ZM916.4 319.7a4.7 4.7 0 1 1-9.4 0 4.7 4.7 0 0 1 9.4 0ZM979.5 319.7a4.7 4.7 0 1 1-9.4 0 4.7 4.7 0 0 1 9.4 0ZM211 332.3a4.7 4.7 0 1 1-9.4 0 4.7 4.7 0 0 1 9.4 0ZM223.7 332.3a4.7 4.7 0 1 1-9.5 0 4.7 4.7 0 0 1 9.5 0ZM236.2 332.3a4.7 4.7 0 1 1-9.4 0 4.7 4.7 0 0 1 9.4 0ZM248.8 332.3a4.7 4.7 0 1 1-9.4 0 4.7 4.7 0 0 1 9.4 0ZM261.4 332.3a4.7 4.7 0 1 1-9.4 0 4.7 4.7 0 0 1 9.4 0ZM274 332.3a4.7 4.7 0 1 1-9.4 0 4.7 4.7 0 0 1 9.4 0ZM286.6 332.3a4.7 4.7 0 1 1-9.4 0 4.7 4.7 0 0 1 9.4 0ZM299.2 332.3a4.7 4.7 0 1 1-9.4 0 4.7 4.7 0 0 1 9.4 0ZM311.8 332.3a4.7 4.7 0 1 1-9.5 0 4.7 4.7 0 0 1 9.5 0ZM551.2 332.3a4.7 4.7 0 1 1-9.4 0 4.7 4.7 0 0 1 9.4 0ZM563.8 332.3a4.7 4.7 0 1 1-9.5 0 4.7 4.7 0 0 1 9.5 0ZM576.4 332.3a4.7 4.7 0 1 1-9.4 0 4.7 4.7 0 0 1 9.4 0ZM589 332.3a4.7 4.7 0 1 1-9.4 0 4.7 4.7 0 0 1 9.4 0ZM601.6 332.3a4.7 4.7 0 1 1-9.5 0 4.7 4.7 0 0 1 9.5 0ZM614.2 332.3a4.7 4.7 0 1 1-9.4 0 4.7 4.7 0 0 1 9.4 0ZM626.8 332.3a4.7 4.7 0 1 1-9.5 0 4.7 4.7 0 0 1 9.5 0ZM639.3 332.3a4.7 4.7 0 1 1-9.4 0 4.7 4.7 0 0 1 9.4 0ZM652 332.3a4.7 4.7 0 1 1-9.4 0 4.7 4.7 0 0 1 9.4 0ZM664.6 332.3a4.7 4.7 0 1 1-9.5 0 4.7 4.7 0 0 1 9.5 0ZM677.2 332.3a4.7 4.7 0 1 1-9.4 0 4.7 4.7 0 0 1 9.4 0ZM689.8 332.3a4.7 4.7 0 1 1-9.5 0 4.7 4.7 0 0 1 9.5 0ZM904 332.3a4.7 4.7 0 1 1-9.5 0 4.7 4.7 0 0 1 9.5 0ZM916.4 332.3a4.7 4.7 0 1 1-9.4 0 4.7 4.7 0 0 1 9.4 0ZM954.3 332.3a4.7 4.7 0 1 1-9.4 0 4.7 4.7 0 0 1 9.4 0ZM967 332.3a4.7 4.7 0 1 1-9.5 0 4.7 4.7 0 0 1 9.4 0ZM979.5 332.3a4.7 4.7 0 1 1-9.4 0 4.7 4.7 0 0 1 9.4 0ZM206.3 349.6a4.7 4.7 0 1 0 0-9.4 4.7 4.7 0 0 0 0 9.4ZM223.7 344.9a4.7 4.7 0 1 1-9.5 0 4.7 4.7 0 0 1 9.5 0ZM236.2 344.9a4.7 4.7 0 1 1-9.4 0 4.7 4.7 0 0 1 9.4 0ZM244.1 349.6a4.7 4.7 0 1 0 0-9.4 4.7 4.7 0 0 0 0 9.4ZM261.4 344.9a4.7 4.7 0 1 1-9.4 0 4.7 4.7 0 0 1 9.4 0ZM269.3 349.6a4.7 4.7 0 1 0 0-9.4 4.7 4.7 0 0 0 0 9.4ZM286.6 344.9a4.7 4.7 0 1 1-9.4 0 4.7 4.7 0 0 1 9.4 0ZM299.2 344.9a4.7 4.7 0 1 1-9.4 0 4.7 4.7 0 0 1 9.4 0ZM307.1 349.6a4.7 4.7 0 1 0 0-9.4 4.7 4.7 0 0 0 0 9.4ZM324.4 344.9a4.7 4.7 0 1 1-9.4 0 4.7 4.7 0 0 1 9.4 0ZM563.8 344.9a4.7 4.7 0 1 1-9.5 0 4.7 4.7 0 0 1 9.5 0ZM576.4 344.9a4.7 4.7 0 1 1-9.4 0 4.7 4.7 0 0 1 9.4 0ZM584.3 349.6a4.7 4.7 0 1 0 0-9.4 4.7 4.7 0 0 0 0 9.4ZM601.6 344.9a4.7 4.7 0 1 1-9.5 0 4.7 4.7 0 0 1 9.5 0ZM609.5 349.6a4.7 4.7 0 1 0 0-9.4 4.7 4.7 0 0 0 0 9.4ZM626.8 344.9a4.7 4.7 0 1 1-9.5 0 4.7 4.7 0 0 1 9.5 0ZM639.3 344.9a4.7 4.7 0 1 1-9.4 0 4.7 4.7 0 0 1 9.4 0ZM647.3 349.6a4.7 4.7 0 1 0 0-9.4 4.7 4.7 0 0 0 0 9.4ZM664.6 344.9a4.7 4.7 0 1 1-9.5 0 4.7 4.7 0 0 1 9.5 0ZM672.5 349.6a4.7 4.7 0 1 0 0-9.4 4.7 4.7 0 0 0 0 9.4ZM689.8 344.9a4.7 4.7 0 1 1-9.5 0 4.7 4.7 0 0 1 9.5 0ZM916.4 344.9a4.7 4.7 0 1 1-9.4 0 4.7 4.7 0 0 1 9.4 0ZM924.4 349.6a4.7 4.7 0 1 0 0-9.4 4.7 4.7 0 0 0 0 9.4ZM949.6 349.6a4.7 4.7 0 1 0 0-9.4 4.7 4.7 0 0 0 0 9.4ZM967 344.9a4.7 4.7 0 1 1-9.5 0 4.7 4.7 0 0 1 9.4 0ZM979.5 344.9a4.7 4.7 0 1 1-9.4 0 4.7 4.7 0 0 1 9.4 0ZM987.4 349.6a4.7 4.7 0 1 0 0-9.4 4.7 4.7 0 0 0 0 9.4ZM1004.8 344.9a4.8 4.8 0 0 1-5.7 4.7 4.7 4.7 0 1 1 5.6-4.7ZM1012.6 349.6a4.7 4.7 0 1 0 0-9.4 4.7 4.7 0 0 0 0 9.4ZM1030 344.9a4.8 4.8 0 0 1-3 4.4 4.7 4.7 0 0 1-6.2-6.2 4.7 4.7 0 0 1 4.4-3 4.7 4.7 0 0 1 4.7 4.8ZM211 357.5a4.7 4.7 0 1 1-9.4 0 4.7 4.7 0 0 1 9.4 0ZM223.7 357.5a4.7 4.7 0 1 1-9.5 0 4.7 4.7 0 0 1 9.5 0ZM236.2 357.5a4.7 4.7 0 1 1-9.4 0 4.7 4.7 0 0 1 9.4 0ZM248.8 357.5a4.7 4.7 0 1 1-9.4 0 4.7 4.7 0 0 1 9.4 0ZM261.4 357.5a4.7 4.7 0 1 1-9.4 0 4.7 4.7 0 0 1 9.4 0ZM274 357.5a4.7 4.7 0 1 1-9.4 0 4.7 4.7 0 0 1 9.4 0ZM286.6 357.5a4.8 4.8 0 1 1-9.5 0 4.8 4.8 0 0 1 9.5 0ZM299.2 357.5a4.7 4.7 0 1 1-9.4 0 4.7 4.7 0 0 1 9.4 0ZM311.8 357.5a4.7 4.7 0 1 1-9.5 0 4.7 4.7 0 0 1 9.5 0ZM324.4 357.5a4.7 4.7 0 1 1-9.4 0 4.7 4.7 0 0 1 9.4 0ZM337 357.5a4.7 4.7 0 1 1-9.4 0 4.7 4.7 0 0 1 9.4 0ZM349.7 357.5a4.8 4.8 0 1 1-9.5 0 4.8 4.8 0 0 1 9.5 0ZM362.2 357.5a4.7 4.7 0 1 1-9.5 0 4.7 4.7 0 0 1 9.5 0ZM563.8 357.5a4.7 4.7 0 1 1-9.5 0 4.7 4.7 0 0 1 9.5 0ZM576.4 357.5a4.7 4.7 0 1 1-9.4 0 4.7 4.7 0 0 1 9.4 0ZM589 357.5a4.7 4.7 0 1 1-9.5 0 4.7 4.7 0 0 1 9.5 0ZM601.6 357.5a4.8 4.8 0 1 1-9.5 0 4.8 4.8 0 0 1 9.5 0ZM614.2 357.5a4.7 4.7 0 1 1-9.4 0 4.7 4.7 0 0 1 9.4 0ZM626.8 357.5a4.7 4.7 0 1 1-9.5 0 4.7 4.7 0 0 1 9.5 0ZM639.3 357.5a4.7 4.7 0 1 1-9.4 0 4.7 4.7 0 0 1 9.4 0ZM652 357.5a4.7 4.7 0 1 1-9.5 0 4.7 4.7 0 0 1 9.5 0ZM664.6 357.5a4.7 4.7 0 1 1-9.5 0 4.7 4.7 0 0 1 9.5 0ZM677.2 357.5a4.7 4.7 0 1 1-9.5 0 4.7 4.7 0 0 1 9.5 0ZM916.4 357.5a4.7 4.7 0 1 1-9.4 0 4.7 4.7 0 0 1 9.4 0ZM929.1 357.5a4.7 4.7 0 1 1-9.4 0 4.7 4.7 0 0 1 9.4 0ZM941.8 357.5a4.7 4.7 0 1 1-9.5 0 4.7 4.7 0 0 1 9.5 0ZM954.3 357.5a4.7 4.7 0 1 1-9.4 0 4.7 4.7 0 0 1 9.4 0ZM967 357.5a4.7 4.7 0 1 1-9.5 0 4.7 4.7 0 0 1 9.4 0ZM992.1 357.5a4.7 4.7 0 1 1-9.4 0 4.7 4.7 0 0 1 9.4 0ZM1017.3 357.5a4.7 4.7 0 1 1 0 0ZM1030 357.5a4.8 4.8 0 0 1-5.7 4.6 4.8 4.8 0 0 1-3.8-3.7 4.8 4.8 0 0 1 2-4.9 4.7 4.7 0 0 1 6 .6c.5.5.8 1 1 1.6.3.5.4 1.2.4 1.8ZM1042.5 357.5a4.7 4.7 0 0 1-5.6 4.6 4.7 4.7 0 0 1-3.7-3.7 4.7 4.7 0 0 1 2-4.9 4.7 4.7 0 0 1 6 .6 4.6 4.6 0 0 1 1.3 3.4ZM1055.1 357.5a4.7 4.7 0 1 1 0 0ZM1067.7 357.5a4.8 4.8 0 0 1-8 3.3 4.8 4.8 0 0 1 3.4-8.1 4.7 4.7 0 0 1 4.6 4.8ZM1080.3 357.5a4.7 4.7 0 0 1-5.6 4.6 4.7 4.7 0 0 1-1.7-8.6 4.7 4.7 0 0 1 6 .6 4.6 4.6 0 0 1 1.3 3.4ZM1118.1 357.5a4.7 4.7 0 0 1-5.6 4.6 4.7 4.7 0 0 1-1.7-8.6 4.7 4.7 0 0 1 6 .6 4.6 4.6 0 0 1 1.3 3.4ZM206.3 374.8a4.7 4.7 0 1 0 0-9.5 4.7 4.7 0 0 0 0 9.5ZM223.7 370a4.7 4.7 0 1 1-9.5.1 4.7 4.7 0 0 1 9.5 0ZM236.2 370a4.7 4.7 0 1 1-9.4 0 4.7 4.7 0 0 1 9.4 0ZM244.1 374.8a4.7 4.7 0 1 0 0-9.5 4.7 4.7 0 0 0 0 9.5ZM261.4 370a4.7 4.7 0 1 1-9.4 0 4.7 4.7 0 0 1 9.4 0ZM269.3 374.8a4.7 4.7 0 1 0 0-9.5 4.7 4.7 0 0 0 0 9.5ZM286.6 370a4.7 4.7 0 1 1-9.4.1 4.7 4.7 0 0 1 9.4 0ZM299.2 370a4.7 4.7 0 1 1-9.4 0 4.7 4.7 0 0 1 9.4 0ZM307.1 374.8a4.7 4.7 0 1 0 0-9.5 4.7 4.7 0 0 0 0 9.5ZM324.4 370a4.7 4.7 0 1 1-9.4 0 4.7 4.7 0 0 1 9.4 0ZM332.3 374.8a4.7 4.7 0 1 0 0-9.5 4.7 4.7 0 0 0 0 9.5ZM349.7 370a4.7 4.7 0 1 1-9.5.1 4.7 4.7 0 0 1 9.5 0ZM362.2 370a4.7 4.7 0 1 1-9.5 0 4.7 4.7 0 0 1 9.5 0ZM374.8 370a4.7 4.7 0 1 1-9.5.1 4.7 4.7 0 0 1 9.5 0ZM563.8 370a4.7 4.7 0 1 1-9.5.1 4.7 4.7 0 0 1 9.5 0ZM576.4 370a4.7 4.7 0 1 1-9.4 0 4.7 4.7 0 0 1 9.4 0ZM584.3 374.8a4.7 4.7 0 1 0 0-9.5 4.7 4.7 0 0 0 0 9.5ZM601.6 370a4.7 4.7 0 1 1-9.5.1 4.7 4.7 0 0 1 9.5 0ZM609.5 374.8a4.7 4.7 0 1 0 0-9.5 4.7 4.7 0 0 0 0 9.5ZM626.8 370a4.7 4.7 0 1 1-9.5.1 4.7 4.7 0 0 1 9.5 0ZM639.3 370a4.7 4.7 0 1 1-9.4 0 4.7 4.7 0 0 1 9.4 0ZM647.3 374.8a4.7 4.7 0 1 0 0-9.5 4.7 4.7 0 0 0 0 9.5ZM664.6 370a4.7 4.7 0 1 1-9.5.1 4.7 4.7 0 0 1 9.5 0ZM924.4 374.8a4.7 4.7 0 1 0 0-9.5 4.7 4.7 0 0 0 0 9.5ZM941.8 370a4.7 4.7 0 1 1-9.5.1 4.7 4.7 0 0 1 9.5 0ZM949.6 374.8a4.7 4.7 0 1 0 0-9.5 4.7 4.7 0 0 0 0 9.5ZM1042.5 370a4.7 4.7 0 0 1-8 3.4 4.7 4.7 0 0 1-1-5.1 4.7 4.7 0 0 1 7.7-1.6 4.6 4.6 0 0 1 1.3 3.4ZM1067.7 370a4.8 4.8 0 0 1-5.6 4.7 4.7 4.7 0 1 1 5.6-4.6ZM1075.6 374.8a4.7 4.7 0 1 0 0-9.5 4.7 4.7 0 0 0 0 9.5ZM1093 370a4.7 4.7 0 0 1-3 4.5 4.7 4.7 0 0 1-6.5-3.5 4.8 4.8 0 0 1 2-4.9 4.7 4.7 0 0 1 6 .6c1 1 1.4 2.1 1.4 3.4ZM1105.5 370a4.7 4.7 0 0 1-8 3.4 4.7 4.7 0 0 1-1-5.1 4.7 4.7 0 0 1 7.6-1.6 4.6 4.6 0 0 1 1.4 3.4ZM1130.7 370a4.8 4.8 0 0 1-2.9 4.5 4.7 4.7 0 0 1-6.2-6.2 4.8 4.8 0 0 1 8.8 0c.2.5.3 1.1.3 1.8ZM211 382.7a4.7 4.7 0 1 1-9.4 0 4.7 4.7 0 0 1 9.4 0ZM223.7 382.7a4.7 4.7 0 1 1-9.5 0 4.7 4.7 0 0 1 9.5 0ZM236.2 382.7a4.7 4.7 0 1 1-9.4 0 4.7 4.7 0 0 1 9.4 0ZM248.8 382.7a4.7 4.7 0 1 1-9.4 0 4.7 4.7 0 0 1 9.4 0ZM261.4 382.7a4.7 4.7 0 1 1-9.4 0 4.7 4.7 0 0 1 9.4 0ZM274 382.7a4.7 4.7 0 1 1-9.4 0 4.7 4.7 0 0 1 9.4 0ZM286.6 382.7a4.7 4.7 0 1 1-9.4 0 4.7 4.7 0 0 1 9.4 0ZM299.2 382.7a4.7 4.7 0 1 1-9.4 0 4.7 4.7 0 0 1 9.4 0ZM311.8 382.7a4.7 4.7 0 1 1-9.5 0 4.7 4.7 0 0 1 9.5 0ZM324.4 382.7a4.7 4.7 0 1 1-9.4 0 4.7 4.7 0 0 1 9.4 0ZM337 382.7a4.7 4.7 0 1 1-9.4 0 4.7 4.7 0 0 1 9.4 0ZM349.7 382.7a4.7 4.7 0 1 1-9.5 0 4.7 4.7 0 0 1 9.5 0ZM362.2 382.7a4.7 4.7 0 1 1-9.5 0 4.7 4.7 0 0 1 9.5 0ZM374.8 382.7a4.7 4.7 0 1 1-9.5 0 4.7 4.7 0 0 1 9.5 0ZM563.8 382.7a4.7 4.7 0 1 1-9.5 0 4.7 4.7 0 0 1 9.5 0ZM576.4 382.7a4.7 4.7 0 1 1-9.4 0 4.7 4.7 0 0 1 9.4 0ZM589 382.7a4.7 4.7 0 1 1-9.4 0 4.7 4.7 0 0 1 9.4 0ZM601.6 382.7a4.7 4.7 0 1 1-9.5 0 4.7 4.7 0 0 1 9.5 0ZM614.2 382.7a4.7 4.7 0 1 1-9.4 0 4.7 4.7 0 0 1 9.4 0ZM626.8 382.7a4.7 4.7 0 1 1-9.5 0 4.7 4.7 0 0 1 9.5 0ZM639.3 382.7a4.7 4.7 0 1 1-9.4 0 4.7 4.7 0 0 1 9.4 0ZM652 382.7a4.7 4.7 0 1 1-9.4 0 4.7 4.7 0 0 1 9.4 0ZM664.6 382.7a4.7 4.7 0 1 1-9.5 0 4.7 4.7 0 0 1 9.5 0ZM967 382.7a4.7 4.7 0 1 1-9.5 0 4.7 4.7 0 0 1 9.4 0ZM979.5 382.7a4.7 4.7 0 1 1-9.4 0 4.7 4.7 0 0 1 9.4 0ZM992.1 382.7a4.7 4.7 0 1 1-9.4 0 4.7 4.7 0 0 1 9.4 0ZM1004.8 382.7a4.8 4.8 0 0 1-5.7 4.7 4.7 4.7 0 1 1 5.6-4.7ZM1017.3 382.7a4.7 4.7 0 0 1-8 3.3 4.7 4.7 0 0 1 .7-7.3 4.7 4.7 0 0 1 7.3 4ZM1067.7 382.7a4.8 4.8 0 0 1-5.6 4.7 4.7 4.7 0 1 1 5.6-4.7ZM1093 382.7a4.7 4.7 0 0 1-3 4.4 4.7 4.7 0 0 1-6.5-3.5 4.8 4.8 0 0 1 2-4.9 4.7 4.7 0 0 1 6 .6c1 1 1.4 2.1 1.4 3.4ZM1105.5 382.7a4.7 4.7 0 0 1-8 3.3 4.7 4.7 0 0 1 .7-7.3 4.7 4.7 0 0 1 6 .6c.8 1 1.3 2.1 1.3 3.4ZM223.7 395.3a4.7 4.7 0 1 1-9.5 0 4.7 4.7 0 0 1 9.5 0ZM236.2 395.3a4.7 4.7 0 1 1-9.4 0 4.7 4.7 0 0 1 9.4 0ZM244.1 400a4.7 4.7 0 1 0 0-9.4 4.7 4.7 0 0 0 0 9.4ZM261.4 395.3a4.7 4.7 0 1 1-9.4 0 4.7 4.7 0 0 1 9.4 0ZM269.3 400a4.7 4.7 0 1 0 0-9.4 4.7 4.7 0 0 0 0 9.4ZM286.6 395.3a4.7 4.7 0 1 1-9.4 0 4.7 4.7 0 0 1 9.4 0ZM299.2 395.3a4.7 4.7 0 1 1-9.4 0 4.7 4.7 0 0 1 9.4 0ZM307.1 400a4.7 4.7 0 1 0 0-9.4 4.7 4.7 0 0 0 0 9.4ZM324.4 395.3a4.7 4.7 0 1 1-9.4 0 4.7 4.7 0 0 1 9.4 0ZM332.3 400a4.7 4.7 0 1 0 0-9.4 4.7 4.7 0 0 0 0 9.4ZM349.7 395.3a4.7 4.7 0 1 1-9.5 0 4.7 4.7 0 0 1 9.5 0ZM362.2 395.3a4.7 4.7 0 1 1-9.5 0 4.7 4.7 0 0 1 9.5 0ZM374.8 395.3a4.7 4.7 0 1 1-9.5 0 4.7 4.7 0 0 1 9.5 0ZM563.8 395.3a4.7 4.7 0 1 1-9.5 0 4.7 4.7 0 0 1 9.5 0ZM576.4 395.3a4.7 4.7 0 1 1-9.4 0 4.7 4.7 0 0 1 9.4 0ZM584.3 400a4.7 4.7 0 1 0 0-9.4 4.7 4.7 0 0 0 0 9.4ZM601.6 395.3a4.7 4.7 0 1 1-9.5.1 4.7 4.7 0 0 1 9.5-.1ZM609.5 400a4.7 4.7 0 1 0 0-9.4 4.7 4.7 0 0 0 0 9.4ZM626.8 395.3a4.7 4.7 0 1 1-9.5.1 4.7 4.7 0 0 1 9.5-.1ZM639.3 395.3a4.7 4.7 0 1 1-9.4 0 4.7 4.7 0 0 1 9.4 0ZM647.3 400a4.7 4.7 0 1 0 0-9.4 4.7 4.7 0 0 0 0 9.4ZM664.6 395.3a4.7 4.7 0 1 1-9.5 0 4.7 4.7 0 0 1 9.5 0ZM223.7 407.9a4.7 4.7 0 1 1-9.5 0 4.7 4.7 0 0 1 9.5 0ZM236.2 407.9a4.7 4.7 0 1 1-9.4 0 4.7 4.7 0 0 1 9.4 0ZM248.8 407.9a4.7 4.7 0 1 1-9.4 0 4.7 4.7 0 0 1 9.4 0ZM261.4 407.9a4.7 4.7 0 1 1-9.4 0 4.7 4.7 0 0 1 9.4 0ZM274 407.9a4.7 4.7 0 1 1-9.4 0 4.7 4.7 0 0 1 9.4 0ZM286.6 407.9a4.7 4.7 0 1 1-9.4 0 4.7 4.7 0 0 1 9.4 0ZM299.2 407.9a4.7 4.7 0 1 1-9.4-.2 4.7 4.7 0 0 1 9.4.2ZM311.8 407.9a4.7 4.7 0 1 1-9.4-.1 4.7 4.7 0 0 1 9.4 0ZM324.4 407.9a4.7 4.7 0 0 1-8 3.2 4.7 4.7 0 1 1 8-3.2ZM337 407.9a4.7 4.7 0 1 1-9.4-.2 4.7 4.7 0 0 1 9.4.2ZM349.7 407.9a4.7 4.7 0 1 1-9.5 0 4.7 4.7 0 0 1 9.5 0ZM362.2 407.9a4.7 4.7 0 1 1-9.5 0 4.7 4.7 0 0 1 9.5 0ZM563.8 407.9a4.7 4.7 0 1 1-9.5 0 4.7 4.7 0 0 1 9.5 0ZM576.4 407.9a4.7 4.7 0 1 1-9.4 0 4.7 4.7 0 0 1 9.4 0ZM589 407.9a4.7 4.7 0 1 1-9.4-.2 4.7 4.7 0 0 1 9.4.2ZM601.6 407.9a4.7 4.7 0 1 1-9.5-.1 4.7 4.7 0 0 1 9.5 0ZM614.2 407.9a4.7 4.7 0 1 1-9.4 0 4.7 4.7 0 0 1 9.4 0ZM626.8 407.9a4.7 4.7 0 1 1-9.5-.1 4.7 4.7 0 0 1 9.5 0ZM639.3 407.9a4.7 4.7 0 1 1-9.4 0 4.7 4.7 0 0 1 9.4 0ZM652 407.9a4.7 4.7 0 1 1-9.4 0 4.7 4.7 0 0 1 9.4 0ZM664.6 407.9a4.7 4.7 0 1 1-9.5 0 4.7 4.7 0 0 1 9.5 0ZM702.4 407.9a4.7 4.7 0 1 1-9.5 0 4.7 4.7 0 0 1 9.5 0ZM1004.8 407.9a4.8 4.8 0 0 1-5.7 4.6 4.7 4.7 0 1 1 5.6-4.6ZM1017.3 407.9a4.7 4.7 0 0 1-8 3.3 4.7 4.7 0 0 1 .7-7.3 4.7 4.7 0 0 1 7.3 4ZM1030 407.9a4.8 4.8 0 0 1-3 4.4 4.7 4.7 0 0 1-4.4-8.4c.8-.5 1.7-.8 2.6-.8a4.7 4.7 0 0 1 4.7 4.8ZM1042.5 407.9a4.7 4.7 0 0 1-8 3.3 4.7 4.7 0 0 1 .7-7.3 4.7 4.7 0 0 1 7.3 4ZM1080.3 407.9a4.7 4.7 0 0 1-8 3.3 4.7 4.7 0 0 1 .7-7.3 4.7 4.7 0 0 1 7.3 4ZM248.8 420.5a4.7 4.7 0 1 1-9.4 0 4.7 4.7 0 0 1 9.4 0ZM261.4 420.5a4.7 4.7 0 1 1-9.4 0 4.7 4.7 0 0 1 9.4 0ZM274 420.5a4.7 4.7 0 1 1-9.4 0 4.7 4.7 0 0 1 9.4 0ZM286.6 420.5a4.7 4.7 0 1 1-9.4 0 4.7 4.7 0 0 1 9.4 0ZM299.2 420.5a4.7 4.7 0 0 1-9.3 1 4.7 4.7 0 1 1 9.3-1ZM311.8 420.5a4.7 4.7 0 1 1-9.5 0 4.7 4.7 0 0 1 9.5 0ZM324.4 420.5a4.7 4.7 0 1 1-9.4 0 4.7 4.7 0 0 1 9.4 0ZM337 420.5a4.7 4.7 0 1 1-9.4 0 4.7 4.7 0 0 1 9.4 0ZM349.7 420.5a4.7 4.7 0 1 1-9.5 0 4.7 4.7 0 0 1 9.5 0ZM362.2 420.5a4.7 4.7 0 1 1-9.5 0 4.7 4.7 0 0 1 9.5 0ZM563.8 420.5a4.7 4.7 0 1 1-9.5 0 4.7 4.7 0 0 1 9.5 0ZM576.4 420.5a4.7 4.7 0 1 1-9.4 0 4.7 4.7 0 0 1 9.4 0ZM589 420.5a4.7 4.7 0 1 1-9.4 0 4.7 4.7 0 0 1 9.4 0ZM601.6 420.5a4.7 4.7 0 1 1-9.5 0 4.7 4.7 0 0 1 9.5 0ZM614.2 420.5a4.7 4.7 0 0 1-9.4 1 4.7 4.7 0 1 1 9.4-1ZM626.8 420.5a4.7 4.7 0 1 1-9.5 0 4.7 4.7 0 0 1 9.5 0ZM639.3 420.5a4.7 4.7 0 1 1-9.4 0 4.7 4.7 0 0 1 9.4 0ZM652 420.5a4.7 4.7 0 1 1-9.5 0 4.7 4.7 0 0 1 9.5 0ZM664.6 420.5a4.7 4.7 0 1 1-9.5 0 4.7 4.7 0 0 1 9.5 0ZM689.8 420.5a4.7 4.7 0 1 1-9.5 0 4.7 4.7 0 0 1 9.5 0ZM702.4 420.5a4.7 4.7 0 1 1-9.5 0 4.7 4.7 0 0 1 9.5 0ZM992.1 420.5a4.7 4.7 0 1 1-9.4 0 4.7 4.7 0 0 1 9.4 0ZM1004.8 420.5a4.8 4.8 0 1 1-9.6 0 4.8 4.8 0 0 1 9.5 0ZM1017.3 420.5a4.7 4.7 0 1 1-.4-1.8c.3.6.4 1.2.4 1.8ZM1030 420.5a4.8 4.8 0 0 1-5.7 4.7 4.8 4.8 0 0 1-3.8-3.7 4.8 4.8 0 0 1 4.7-5.7 4.7 4.7 0 0 1 4.7 4.7ZM1042.5 420.5a4.7 4.7 0 0 1-5.6 4.6 4.7 4.7 0 0 1-3.5-6.4 4.7 4.7 0 0 1 9.1 1.8ZM1055.1 420.5a4.7 4.7 0 1 1-.4-1.8c.3.6.4 1.2.4 1.8ZM1067.7 420.5a4.8 4.8 0 1 1-9.5 0 4.8 4.8 0 0 1 9.5 0ZM1080.3 420.5a4.7 4.7 0 0 1-5.6 4.6 4.7 4.7 0 0 1-3.5-6.4 4.7 4.7 0 0 1 9.1 1.8ZM248.8 433a4.7 4.7 0 1 1-9.4 0 4.7 4.7 0 0 1 9.4 0ZM261.4 433a4.7 4.7 0 1 1-9.4 0 4.7 4.7 0 0 1 9.4 0ZM274 433a4.7 4.7 0 1 1-9.4 0 4.7 4.7 0 0 1 9.4 0ZM286.6 433a4.7 4.7 0 1 1-9.4 0 4.7 4.7 0 0 1 9.4 0ZM299.2 433a4.7 4.7 0 1 1-9.4 0 4.7 4.7 0 0 1 9.4 0ZM311.8 433a4.7 4.7 0 1 1-9.5 0 4.7 4.7 0 0 1 9.5 0ZM324.4 433a4.7 4.7 0 1 1-9.4 0 4.7 4.7 0 0 1 9.4 0ZM337 433a4.7 4.7 0 1 1-9.4 0 4.7 4.7 0 0 1 9.4 0ZM349.7 433a4.7 4.7 0 1 1-9.5 0 4.7 4.7 0 0 1 9.5 0ZM362.2 433a4.7 4.7 0 1 1-9.5 0 4.7 4.7 0 0 1 9.5 0ZM576.4 433a4.7 4.7 0 1 1-9.4 0 4.7 4.7 0 0 1 9.4 0ZM589 433a4.7 4.7 0 1 1-9.4 0 4.7 4.7 0 0 1 9.4 0ZM601.6 433a4.7 4.7 0 1 1-9.5 0 4.7 4.7 0 0 1 9.5 0ZM614.2 433a4.7 4.7 0 1 1-9.4 0 4.7 4.7 0 0 1 9.4 0ZM626.8 433a4.7 4.7 0 1 1-9.5 0 4.7 4.7 0 0 1 9.5 0ZM639.3 433a4.7 4.7 0 1 1-9.4 0 4.7 4.7 0 0 1 9.4 0ZM652 433a4.7 4.7 0 1 1-9.4 0 4.7 4.7 0 0 1 9.4 0ZM689.8 433a4.7 4.7 0 1 1-9.5 0 4.7 4.7 0 0 1 9.5 0ZM702.4 433a4.7 4.7 0 1 1-9.5 0 4.7 4.7 0 0 1 9.5 0ZM979.5 433a4.7 4.7 0 1 1-9.4 0 4.7 4.7 0 0 1 9.4 0ZM992.1 433a4.7 4.7 0 1 1-9.4 0 4.7 4.7 0 0 1 9.4 0ZM1004.8 433a4.8 4.8 0 0 1-5.7 4.7 4.7 4.7 0 1 1 5.6-4.7ZM1017.3 433a4.7 4.7 0 0 1-8 3.4 4.7 4.7 0 0 1 .7-7.3 4.7 4.7 0 0 1 7.3 4ZM1030 433a4.8 4.8 0 0 1-3 4.4 4.7 4.7 0 0 1-4.4-8.3c.8-.5 1.7-.8 2.6-.8a4.7 4.7 0 0 1 4.7 4.7ZM1042.5 433a4.7 4.7 0 0 1-8 3.4 4.7 4.7 0 0 1 .7-7.3 4.7 4.7 0 0 1 7.3 4ZM1055.1 433a4.7 4.7 0 0 1-8 3.4 4.8 4.8 0 0 1-1.3-2.4c-.2-1-.1-2 .3-2.8a4.8 4.8 0 0 1 4.3-2.9 4.7 4.7 0 0 1 4.7 4.7ZM1067.7 433a4.8 4.8 0 0 1-2.9 4.4 4.7 4.7 0 1 1 3-4.4ZM1080.3 433a4.7 4.7 0 0 1-8 3.4 4.7 4.7 0 0 1 .7-7.3 4.7 4.7 0 0 1 7.3 4ZM1093 433a4.7 4.7 0 0 1-3 4.4 4.7 4.7 0 0 1-6.5-3.4 4.8 4.8 0 0 1 2-4.9c.8-.5 1.8-.8 2.7-.8a4.7 4.7 0 0 1 4.7 4.7ZM248.8 445.7a4.7 4.7 0 1 1-9.4 0 4.7 4.7 0 0 1 9.4 0ZM261.4 445.7a4.7 4.7 0 1 1-9.4 0 4.7 4.7 0 0 1 9.4 0ZM274 445.7a4.7 4.7 0 1 1-9.4 0 4.7 4.7 0 0 1 9.4 0ZM286.6 445.7a4.7 4.7 0 1 1-9.4 0 4.7 4.7 0 0 1 9.4 0ZM299.2 445.7a4.7 4.7 0 1 1-9.4 0 4.7 4.7 0 0 1 9.4 0ZM311.8 445.7a4.7 4.7 0 1 1-9.5 0 4.7 4.7 0 0 1 9.5 0ZM324.4 445.7a4.7 4.7 0 1 1-9.4 0 4.7 4.7 0 0 1 9.4 0ZM337 445.7a4.7 4.7 0 1 1-9.4 0 4.7 4.7 0 0 1 9.4 0ZM349.7 445.7a4.7 4.7 0 1 1-9.5 0 4.7 4.7 0 0 1 9.5 0ZM576.4 445.7a4.7 4.7 0 1 1-9.4 0 4.7 4.7 0 0 1 9.4 0ZM589 445.7a4.7 4.7 0 1 1-9.5 0 4.7 4.7 0 0 1 9.5 0ZM601.6 445.7a4.7 4.7 0 1 1-9.5 0 4.7 4.7 0 0 1 9.5 0ZM614.2 445.7a4.7 4.7 0 1 1-9.4 0 4.7 4.7 0 0 1 9.4 0ZM626.8 445.7a4.7 4.7 0 1 1-9.5 0 4.7 4.7 0 0 1 9.5 0ZM639.3 445.7a4.7 4.7 0 1 1-9.4 0 4.7 4.7 0 0 1 9.4 0ZM652 445.7a4.7 4.7 0 1 1-9.4 0 4.7 4.7 0 0 1 9.4 0ZM689.8 445.7a4.7 4.7 0 1 1-9.5 0 4.7 4.7 0 0 1 9.5 0ZM702.4 445.7a4.7 4.7 0 1 1-9.5 0 4.7 4.7 0 0 1 9.5 0ZM954.3 445.7a4.7 4.7 0 1 1-9.4 0 4.7 4.7 0 0 1 9.4 0ZM967 445.7a4.7 4.7 0 1 1-9.5 0 4.7 4.7 0 0 1 9.4 0ZM979.5 445.7a4.7 4.7 0 1 1-9.4 0 4.7 4.7 0 0 1 9.4 0ZM992.1 445.7a4.7 4.7 0 1 1-9.4 0 4.7 4.7 0 0 1 9.4 0ZM1004.8 445.7a4.8 4.8 0 0 1-5.7 4.6 4.7 4.7 0 1 1 5.6-4.6ZM1017.3 445.7a4.7 4.7 0 0 1-9.3.9 4.7 4.7 0 1 1 9.3-1ZM1030 445.7a4.8 4.8 0 0 1-3 4.4 4.7 4.7 0 0 1-6.2-6.2 4.7 4.7 0 0 1 4.4-3 4.7 4.7 0 0 1 4.7 4.8ZM1042.5 445.7a4.7 4.7 0 0 1-9.3.9c-.2-1-.1-1.9.3-2.7a4.7 4.7 0 0 1 7.6-1.6c1 1 1.4 2.1 1.4 3.4ZM1055.1 445.7a4.7 4.7 0 0 1-8 3.3 4.8 4.8 0 0 1-1.3-2.4c-.2-1-.1-1.9.3-2.7a4.8 4.8 0 0 1 4.3-3 4.7 4.7 0 0 1 4.7 4.8ZM1067.7 445.7a4.8 4.8 0 0 1-5.6 4.6 4.7 4.7 0 1 1 5.6-4.6ZM1080.3 445.7a4.7 4.7 0 0 1-9.3.9 4.7 4.7 0 1 1 9.3-1ZM1093 445.7a4.7 4.7 0 0 1-3 4.4 4.7 4.7 0 0 1-6.5-3.5 4.8 4.8 0 0 1 2-4.9 4.7 4.7 0 0 1 6 .6c1 1 1.4 2.1 1.4 3.4ZM248.8 458.2a4.7 4.7 0 1 1-9.4.1 4.7 4.7 0 0 1 9.4 0ZM261.4 458.2a4.7 4.7 0 1 1-9.4 0 4.7 4.7 0 0 1 9.4 0ZM274 458.2a4.7 4.7 0 1 1-9.4 0 4.7 4.7 0 0 1 9.4 0ZM286.6 458.2a4.7 4.7 0 1 1-9.4.1 4.7 4.7 0 0 1 9.4 0ZM299.2 458.2a4.7 4.7 0 1 1-9.4 0 4.7 4.7 0 0 1 9.4 0ZM311.8 458.2a4.7 4.7 0 1 1-9.5.1 4.7 4.7 0 0 1 9.5 0ZM324.4 458.2a4.7 4.7 0 1 1-9.4 0 4.7 4.7 0 0 1 9.4 0ZM337 458.2a4.7 4.7 0 1 1-9.4 0 4.7 4.7 0 0 1 9.4 0ZM576.4 458.2a4.7 4.7 0 1 1-9.4 0 4.7 4.7 0 0 1 9.4 0ZM589 458.2a4.7 4.7 0 1 1-9.5 0 4.7 4.7 0 0 1 9.5 0ZM601.6 458.2a4.7 4.7 0 1 1-9.5.1 4.7 4.7 0 0 1 9.5 0ZM614.2 458.2a4.7 4.7 0 1 1-9.4 0 4.7 4.7 0 0 1 9.4 0ZM626.8 458.2a4.7 4.7 0 1 1-9.5.1 4.7 4.7 0 0 1 9.5 0ZM639.3 458.2a4.7 4.7 0 1 1-9.4 0 4.7 4.7 0 0 1 9.4 0ZM689.8 458.2a4.7 4.7 0 1 1-9.5.1 4.7 4.7 0 0 1 9.5 0ZM954.3 458.2a4.7 4.7 0 1 1-9.4 0 4.7 4.7 0 0 1 9.4 0ZM967 458.2a4.7 4.7 0 1 1-9.5.1 4.7 4.7 0 0 1 9.4 0ZM979.5 458.2a4.7 4.7 0 1 1-9.4 0 4.7 4.7 0 0 1 9.4 0ZM992.1 458.2a4.7 4.7 0 1 1-9.4 0 4.7 4.7 0 0 1 9.4 0ZM1004.8 458.2a4.8 4.8 0 0 1-5.7 4.7 4.7 4.7 0 1 1 5.6-4.7ZM1017.3 458.2a4.7 4.7 0 0 1-9.3 1 4.7 4.7 0 1 1 9.3-1ZM1030 458.2a4.8 4.8 0 0 1-3 4.4 4.7 4.7 0 0 1-6.2-6.2 4.7 4.7 0 0 1 4.4-2.9 4.7 4.7 0 0 1 4.7 4.7ZM1042.5 458.2a4.7 4.7 0 0 1-9.3 1c-.2-1-.1-1.9.3-2.8a4.7 4.7 0 0 1 7.6-1.5c1 .9 1.4 2.1 1.4 3.3ZM1055.1 458.2a4.7 4.7 0 0 1-8 3.4 4.8 4.8 0 0 1-1.3-2.4c-.2-1-.1-1.9.3-2.8a4.8 4.8 0 0 1 4.3-2.9 4.7 4.7 0 0 1 4.7 4.7ZM1067.7 458.2a4.8 4.8 0 0 1-5.6 4.7 4.7 4.7 0 1 1 5.6-4.7ZM1080.3 458.2a4.7 4.7 0 0 1-9.3 1 4.7 4.7 0 1 1 9.3-1ZM1093 458.2a4.7 4.7 0 0 1-3 4.4 4.7 4.7 0 0 1-6.5-3.4 4.8 4.8 0 0 1 2-4.9 4.7 4.7 0 0 1 6 .6c1 .9 1.4 2.1 1.4 3.3ZM248.8 470.9a4.7 4.7 0 1 1-9.4 0 4.7 4.7 0 0 1 9.4 0ZM261.4 470.9a4.7 4.7 0 1 1-9.4 0 4.7 4.7 0 0 1 9.4 0ZM274 470.9a4.7 4.7 0 1 1-9.4 0 4.7 4.7 0 0 1 9.4 0ZM286.6 470.9a4.7 4.7 0 1 1-9.4 0 4.7 4.7 0 0 1 9.4 0ZM299.2 470.9a4.7 4.7 0 1 1-9.4 0 4.7 4.7 0 0 1 9.4 0ZM311.8 470.9a4.7 4.7 0 1 1-9.5 0 4.7 4.7 0 0 1 9.5 0ZM324.4 470.9a4.7 4.7 0 1 1-9.4 0 4.7 4.7 0 0 1 9.4 0ZM337 470.9a4.7 4.7 0 1 1-9.4 0 4.7 4.7 0 0 1 9.4 0ZM589 470.9a4.7 4.7 0 1 1-9.4 0 4.7 4.7 0 0 1 9.4 0ZM601.6 470.9a4.7 4.7 0 1 1-9.5 0 4.7 4.7 0 0 1 9.5 0ZM614.2 470.9a4.7 4.7 0 1 1-9.4 0 4.7 4.7 0 0 1 9.4 0ZM626.8 470.9a4.7 4.7 0 1 1-9.5 0 4.7 4.7 0 0 1 9.5 0ZM639.3 470.9a4.7 4.7 0 1 1-9.4 0 4.7 4.7 0 0 1 9.4 0ZM954.3 470.9a4.7 4.7 0 1 1-9.4 0 4.7 4.7 0 0 1 9.4 0ZM967 470.9a4.7 4.7 0 1 1-9.5 0 4.7 4.7 0 0 1 9.4 0ZM979.5 470.9a4.7 4.7 0 1 1-9.4 0 4.7 4.7 0 0 1 9.4 0ZM992.1 470.9a4.7 4.7 0 1 1-9.4 0 4.7 4.7 0 0 1 9.4 0ZM1004.8 470.9a4.8 4.8 0 0 1-5.7 4.6 4.7 4.7 0 1 1 5.6-4.6ZM1017.3 470.9a4.7 4.7 0 0 1-8 3.3 4.7 4.7 0 0 1 .7-7.3 4.7 4.7 0 0 1 7.3 4ZM1030 470.9a4.8 4.8 0 0 1-3 4.4 4.7 4.7 0 0 1-6.5-3.5 4.8 4.8 0 0 1 2-4.9c.9-.5 1.8-.8 2.7-.8a4.7 4.7 0 0 1 4.7 4.8ZM1042.5 470.9a4.7 4.7 0 0 1-8 3.3 4.7 4.7 0 0 1 .7-7.3 4.7 4.7 0 0 1 7.3 4ZM1055.1 470.9a4.7 4.7 0 0 1-8 3.3 4.8 4.8 0 0 1-1.3-2.4c-.2-1-.1-1.9.3-2.8a4.8 4.8 0 0 1 4.3-2.9 4.7 4.7 0 0 1 4.7 4.8ZM1067.7 470.9a4.8 4.8 0 0 1-2.9 4.4 4.7 4.7 0 1 1 3-4.4ZM1080.3 470.9a4.7 4.7 0 0 1-8 3.3 4.7 4.7 0 0 1 .7-7.3 4.7 4.7 0 0 1 7.3 4ZM1093 470.9a4.7 4.7 0 0 1-3 4.4 4.7 4.7 0 0 1-5.2-1 4.8 4.8 0 0 1 .7-7.3c.8-.6 1.8-.9 2.7-.9a4.7 4.7 0 0 1 4.7 4.8ZM244.1 488.2a4.7 4.7 0 1 0 0-9.5 4.7 4.7 0 0 0 0 9.5ZM261.4 483.5a4.7 4.7 0 1 1-9.4 0 4.7 4.7 0 0 1 9.4 0ZM269.3 488.2a4.7 4.7 0 1 0 0-9.5 4.7 4.7 0 0 0 0 9.5ZM286.6 483.5a4.7 4.7 0 1 1-9.4 0 4.7 4.7 0 0 1 9.4 0ZM299.2 483.5a4.7 4.7 0 0 1-8 3.3 4.7 4.7 0 1 1 8-3.3ZM307.1 488.2a4.7 4.7 0 1 0 0-9.5 4.7 4.7 0 0 0 0 9.5ZM324.4 483.5a4.7 4.7 0 1 1-9.4 0 4.7 4.7 0 0 1 9.4 0ZM584.3 488.2a4.7 4.7 0 1 0 0-9.5 4.7 4.7 0 0 0 0 9.5ZM601.6 483.5a4.7 4.7 0 1 1-9.5 0 4.7 4.7 0 0 1 9.5 0ZM609.5 488.2a4.7 4.7 0 1 0 0-9.5 4.7 4.7 0 0 0 0 9.5ZM626.8 483.5a4.7 4.7 0 1 1-9.5 0 4.7 4.7 0 0 1 9.5 0ZM949.6 488.2a4.7 4.7 0 1 0 0-9.5 4.7 4.7 0 0 0 0 9.5ZM967 483.5a4.7 4.7 0 1 1-9.5 0 4.7 4.7 0 0 1 9.4 0ZM979.5 483.5a4.7 4.7 0 1 1-9.4 0 4.7 4.7 0 0 1 9.4 0ZM987.4 488.2a4.7 4.7 0 1 0 0-9.5 4.7 4.7 0 0 0 0 9.5ZM1004.8 483.5a4.8 4.8 0 1 1-9.6 0 4.8 4.8 0 0 1 9.5 0ZM1012.6 488.2a4.7 4.7 0 1 0 0-9.5 4.7 4.7 0 0 0 0 9.5ZM1030 483.5a4.8 4.8 0 0 1-5.7 4.6 4.8 4.8 0 0 1-3.8-3.7 4.8 4.8 0 0 1 4.7-5.7 4.7 4.7 0 0 1 4.7 4.8ZM1042.5 483.5a4.7 4.7 0 0 1-5.6 4.6 4.7 4.7 0 0 1-3.7-3.7 4.7 4.7 0 0 1 2-4.9 4.7 4.7 0 0 1 6 .6 4.6 4.6 0 0 1 1.3 3.4ZM1050.4 488.2a4.7 4.7 0 1 0 0-9.5 4.7 4.7 0 0 0 0 9.5ZM1067.7 483.5a4.8 4.8 0 1 1-9.5 0 4.8 4.8 0 0 1 9.5 0ZM1075.6 488.2a4.7 4.7 0 1 0 0-9.5 4.7 4.7 0 0 0 0 9.5ZM248.8 496a4.7 4.7 0 1 1-9.4.1 4.7 4.7 0 0 1 9.4 0ZM261.4 496a4.7 4.7 0 1 1-9.4 0 4.7 4.7 0 0 1 9.4 0ZM274 496a4.7 4.7 0 1 1-9.4 0 4.7 4.7 0 0 1 9.4 0ZM286.6 496a4.7 4.7 0 1 1-9.4.1 4.7 4.7 0 0 1 9.4 0ZM299.2 496a4.7 4.7 0 1 1-9.4 0 4.7 4.7 0 0 1 9.4 0ZM311.8 496a4.7 4.7 0 1 1-9.5.1 4.7 4.7 0 0 1 9.5 0ZM589 496a4.7 4.7 0 1 1-9.4 0 4.7 4.7 0 0 1 9.4 0ZM601.6 496a4.7 4.7 0 1 1-9.5.1 4.7 4.7 0 0 1 9.5 0ZM614.2 496a4.7 4.7 0 1 1-9.4 0 4.7 4.7 0 0 1 9.4 0ZM954.3 496a4.7 4.7 0 1 1-9.4 0 4.7 4.7 0 0 1 9.4 0ZM967 496a4.7 4.7 0 1 1-9.5.1 4.7 4.7 0 0 1 9.4 0ZM1030 496a4.8 4.8 0 0 1-3 4.5 4.7 4.7 0 0 1-6.2-6.3 4.7 4.7 0 0 1 4.4-2.9 4.7 4.7 0 0 1 4.7 4.7ZM1042.5 496a4.7 4.7 0 0 1-9.3 1c-.2-1-.1-1.9.3-2.8a4.7 4.7 0 0 1 7.7-1.5 4.6 4.6 0 0 1 1.3 3.3ZM1055.1 496a4.7 4.7 0 0 1-8 3.4 4.8 4.8 0 0 1-1.3-2.4c-.2-1-.1-1.9.3-2.8a4.8 4.8 0 0 1 4.3-2.9 4.7 4.7 0 0 1 4.7 4.7ZM1067.7 496a4.8 4.8 0 0 1-5.6 4.7 4.8 4.8 0 1 1 5.6-4.7ZM1080.3 496a4.7 4.7 0 0 1-9.3 1 4.7 4.7 0 1 1 9.3-1ZM244.1 513.4a4.7 4.7 0 1 0 0-9.5 4.7 4.7 0 0 0 0 9.5ZM261.4 508.7a4.7 4.7 0 1 1-9.4 0 4.7 4.7 0 0 1 9.4 0ZM269.3 513.4a4.7 4.7 0 1 0 0-9.5 4.7 4.7 0 0 0 0 9.5ZM286.6 508.7a4.7 4.7 0 1 1-9.4 0 4.7 4.7 0 0 1 9.4 0ZM299.2 508.7a4.7 4.7 0 1 1-9.4 0 4.7 4.7 0 0 1 9.4 0ZM307.1 513.4a4.7 4.7 0 1 0 0-9.5 4.7 4.7 0 0 0 0 9.5ZM1042.5 508.7a4.7 4.7 0 0 1-8 3.3 4.7 4.7 0 0 1 .7-7.3 4.7 4.7 0 0 1 7.3 4ZM1050.4 513.4a4.7 4.7 0 1 0 0-9.5 4.7 4.7 0 0 0 0 9.5ZM1163.8 513.4a4.7 4.7 0 1 0 0-9.5 4.7 4.7 0 0 0 0 9.5ZM261.4 521.2a4.7 4.7 0 1 1-9.4 0 4.7 4.7 0 0 1 9.4 0ZM274 521.2a4.7 4.7 0 1 1-9.4 0 4.7 4.7 0 0 1 9.4 0ZM286.6 521.2a4.7 4.7 0 1 1-9.4 0 4.7 4.7 0 0 1 9.4 0ZM1042.5 521.2a4.7 4.7 0 0 1-8 3.4 4.7 4.7 0 0 1 .7-7.3 4.7 4.7 0 0 1 7.3 4ZM1143.3 521.2a4.7 4.7 0 1 1-9.4 0 4.7 4.7 0 0 1 9.4 0ZM1156 521.2a4.7 4.7 0 0 1-3 4.4 4.8 4.8 0 0 1-6.5-3.4 4.7 4.7 0 0 1 2-4.9 4.7 4.7 0 0 1 6 .6c1 .9 1.4 2 1.4 3.3ZM261.4 533.8a4.7 4.7 0 1 1-9.4 0 4.7 4.7 0 0 1 9.4 0ZM269.3 538.6a4.7 4.7 0 1 0 0-9.5 4.7 4.7 0 0 0 0 9.5ZM286.6 533.8a4.7 4.7 0 1 1-9.4.1 4.7 4.7 0 0 1 9.4 0ZM1042.5 533.8a4.7 4.7 0 0 1-8 3.4 4.7 4.7 0 0 1-1-5.2 4.7 4.7 0 0 1 7.6-1.5c1 .9 1.4 2.1 1.4 3.3ZM1130.7 533.8a4.8 4.8 0 0 1-2.9 4.4 4.7 4.7 0 0 1-6.2-6.1 4.8 4.8 0 0 1 4.4-3 4.7 4.7 0 0 1 4.7 4.7ZM261.4 546.5a4.7 4.7 0 1 1-9.4 0 4.7 4.7 0 0 1 9.4 0ZM274 546.5a4.7 4.7 0 1 1-9.4 0 4.7 4.7 0 0 1 9.4 0ZM286.6 546.5a4.7 4.7 0 1 1-9.4 0 4.7 4.7 0 0 1 9.4 0ZM1105.5 546.5a4.7 4.7 0 0 1-3 4.3 4.7 4.7 0 0 1-6.3-3.5 4.7 4.7 0 0 1 8-4.2 4.6 4.6 0 0 1 1.3 3.4ZM1118.1 546.5a4.7 4.7 0 0 1-3 4.3 4.7 4.7 0 0 1-6.3-3.5 4.7 4.7 0 0 1 2-4.8 4.7 4.7 0 0 1 6 .6 4.6 4.6 0 0 1 1.3 3.4ZM261.4 559a4.7 4.7 0 1 1-9.4 0 4.7 4.7 0 0 1 9.4 0ZM269.3 563.8a4.7 4.7 0 1 0 0-9.5 4.7 4.7 0 0 0 0 9.5ZM286.6 559a4.7 4.7 0 1 1-9.4 0 4.7 4.7 0 0 1 9.4 0ZM274 571.6a4.7 4.7 0 1 1-9.4 0 4.7 4.7 0 0 1 9.4 0ZM286.6 571.6a4.8 4.8 0 1 1-9.5 0 4.8 4.8 0 0 1 9.5 0ZM286.6 584.2a4.7 4.7 0 1 1-9.4 0 4.7 4.7 0 0 1 9.4 0ZM299.2 584.2a4.7 4.7 0 1 1-9.4 0 4.7 4.7 0 0 1 9.4 0ZM307.1 589a4.7 4.7 0 1 0 0-9.5 4.7 4.7 0 0 0 0 9.5Z" fill="#919191"/></svg>